<?xml version="1.0" standalone="no"?>
<!DOCTYPE svg PUBLIC "-//W3C//DTD SVG 20010904//EN"
 "http://www.w3.org/TR/2001/REC-SVG-20010904/DTD/svg10.dtd">
<svg version="1.0" xmlns="http://www.w3.org/2000/svg"
 width="920.000000pt" height="920.000000pt" viewBox="0 0 920.000000 920.000000"
 preserveAspectRatio="xMidYMid meet">
<metadata>
Created by potrace 1.14, written by Peter Selinger 2001-2017
</metadata>
<g transform="translate(0.000000,920.000000) scale(0.100000,-0.100000)"
fill="#000000" stroke="none">
<path d="M0 4600 l0 -4600 726 0 725 0 14 33 c7 17 18 61 24 97 24 134 45 226
58 254 8 15 12 38 9 51 -4 14 0 28 9 35 8 7 15 19 15 26 0 8 18 50 40 94 22
44 40 92 40 107 0 26 23 105 38 127 6 11 18 41 57 151 9 28 20 55 25 60 4 6
13 31 20 57 7 26 19 53 26 59 8 6 14 20 14 31 0 11 11 38 24 61 14 23 38 65
53 94 56 104 217 283 254 283 10 0 19 5 19 10 0 6 8 18 18 28 72 68 122 111
157 133 52 33 192 99 210 99 8 0 17 5 20 10 4 6 12 10 18 8 7 -1 35 12 62 29
28 17 64 40 80 50 17 10 50 24 75 32 25 7 55 17 68 22 50 20 78 32 94 40 10 5
28 9 40 9 13 0 42 9 66 20 24 11 42 15 42 8 0 -5 7 -8 15 -4 8 3 26 1 39 -4
21 -8 25 -5 30 16 8 29 1 44 -19 44 -8 0 -22 14 -32 30 -9 17 -21 30 -25 30
-4 0 -8 7 -8 15 0 8 3 15 6 15 8 0 64 -63 64 -72 0 -5 9 -3 21 4 17 11 22 10
33 -4 16 -22 30 -23 45 -4 9 11 2 21 -34 50 -45 37 -55 59 -33 72 6 4 23 -6
39 -24 16 -18 33 -32 38 -32 5 0 14 -7 21 -15 7 -8 21 -15 32 -15 15 0 19 -5
15 -20 -6 -23 21 -28 42 -7 10 10 10 7 2 -15 -8 -20 -7 -29 5 -38 10 -9 14
-10 14 -1 0 18 29 -2 43 -29 7 -13 21 -28 32 -34 11 -6 22 -13 25 -16 3 -3 26
-18 53 -33 26 -15 47 -33 47 -38 0 -6 6 -9 14 -6 8 3 24 -5 37 -19 12 -13 28
-24 35 -24 19 0 28 -21 13 -31 -24 -15 0 -23 27 -8 24 12 28 12 45 -10 11 -13
30 -23 44 -23 14 0 28 -4 31 -9 8 -14 24 -10 24 5 0 20 21 25 45 13 19 -10 19
-11 -5 -19 -16 -5 -10 -5 17 -2 38 5 43 4 43 -15 0 -28 21 -37 36 -16 13 17
14 17 24 -11 10 -27 62 -62 84 -56 5 2 38 -12 73 -29 54 -27 66 -30 74 -18 8
11 13 10 26 -9 9 -13 26 -22 42 -22 46 0 70 -11 73 -34 2 -12 11 -22 23 -24
12 -2 34 -14 50 -27 15 -14 34 -25 40 -25 7 0 16 -7 19 -16 4 -9 9 -14 12 -11
3 3 0 14 -7 26 -17 26 -3 41 15 16 13 -18 13 -18 24 1 10 18 11 18 29 1 22
-19 49 -22 58 -7 10 16 25 12 25 -8 0 -9 10 -23 21 -31 17 -10 19 -15 9 -21
-10 -6 -9 -13 4 -31 9 -13 16 -31 16 -41 0 -15 3 -16 28 -3 73 36 83 39 100
29 23 -13 62 -6 62 12 0 8 5 14 11 14 7 0 9 -12 7 -30 -4 -25 -2 -30 11 -24
42 17 51 16 51 -5 0 -15 -6 -21 -24 -21 -13 0 -29 -7 -36 -15 -7 -8 -18 -15
-25 -15 -19 0 -26 -27 -9 -34 24 -9 46 -7 39 4 -9 14 21 13 44 -2 14 -9 29 -9
53 -2 22 7 43 7 63 1 21 -7 30 -7 33 2 2 6 11 11 21 11 9 0 22 5 29 12 9 9 12
8 12 -4 0 -9 -10 -18 -22 -21 -18 -5 -19 -8 -8 -21 10 -13 10 -16 -4 -16 -9 0
-16 -7 -16 -16 0 -9 -9 -18 -20 -21 -11 -3 -20 -9 -20 -14 0 -5 -9 -9 -20 -9
-11 0 -23 -7 -26 -15 -4 -8 -17 -15 -30 -15 -15 0 -24 -6 -24 -16 0 -12 -7
-15 -29 -12 -17 3 -29 0 -28 -6 1 -6 -13 -18 -30 -27 -18 -9 -39 -22 -47 -28
-8 -7 -25 -9 -40 -5 -15 3 -26 2 -26 -4 0 -5 -21 -12 -46 -16 -26 -3 -53 -11
-59 -16 -7 -6 -30 -12 -52 -14 -37 -4 -85 -21 -146 -53 -15 -8 -32 -11 -37 -8
-6 4 -16 3 -23 -2 -7 -5 -39 -17 -72 -27 -33 -10 -68 -22 -77 -27 -10 -5 -35
-11 -55 -14 -21 -3 -44 -12 -51 -22 -11 -15 -12 -15 -12 5 0 30 -22 37 -57 19
-15 -8 -56 -14 -91 -15 -69 0 -105 -20 -100 -55 2 -14 -6 -22 -32 -31 -19 -6
-34 -15 -33 -21 1 -5 -4 -19 -11 -31 -17 -25 -9 -74 11 -74 11 0 14 -9 11 -33
-3 -29 -1 -33 14 -29 37 9 17 -27 -25 -46 -26 -11 -27 -15 -21 -49 4 -21 13
-42 20 -46 16 -9 19 -47 4 -47 -5 0 -10 5 -10 10 0 6 -5 10 -11 10 -7 0 -9
-12 -4 -36 4 -23 2 -39 -4 -44 -11 -6 -20 -46 -26 -111 -1 -20 -6 -45 -9 -56
-3 -10 1 -28 9 -39 14 -18 14 -18 15 12 0 16 6 36 12 42 10 10 10 17 0 33 -14
22 -8 39 14 39 8 0 14 10 14 24 0 14 5 28 10 31 6 3 10 20 10 36 0 16 7 40 14
52 10 15 15 55 17 127 2 102 2 106 32 137 37 40 50 41 83 8 26 -27 31 -75 10
-103 -7 -9 -6 -16 3 -21 9 -6 9 -19 2 -51 -6 -27 -6 -50 0 -61 12 -23 12 -39
-1 -39 -5 0 -10 9 -10 20 0 11 -4 20 -10 20 -14 0 -13 -43 2 -58 9 -9 7 -13
-5 -18 -9 -3 -17 -16 -17 -29 0 -12 -7 -28 -15 -35 -10 -9 -12 -17 -6 -23 13
-13 2 -76 -21 -112 -10 -16 -18 -38 -18 -47 0 -20 -58 -80 -70 -73 -12 7 -46
-65 -42 -88 2 -10 -6 -21 -20 -26 -17 -7 -2 -10 60 -10 48 -1 82 3 82 9 0 6 5
10 11 10 5 0 7 -5 4 -10 -4 -6 11 -10 36 -10 33 0 49 6 71 27 l28 27 0 -27 c0
-21 5 -27 21 -27 19 0 19 1 5 22 -18 25 -21 64 -6 73 6 3 10 15 10 26 0 10 5
19 11 19 5 0 8 -4 4 -10 -3 -5 3 -18 15 -30 21 -21 55 -27 65 -10 3 6 -3 10
-13 10 -11 0 -22 9 -25 20 -5 21 16 29 28 10 3 -5 10 -10 16 -10 13 0 11 34
-2 47 -6 6 -8 16 -5 22 10 16 36 1 36 -20 0 -10 6 -19 14 -19 8 0 23 -3 33 -7
13 -4 9 3 -11 26 -24 24 -27 34 -18 43 10 10 17 10 32 0 20 -12 62 -3 74 17
12 18 -15 23 -40 7 -21 -14 -25 -15 -30 -2 -3 8 -14 16 -25 19 -17 5 -19 9 -9
27 6 11 15 18 21 14 5 -3 16 0 24 6 8 7 26 10 40 8 20 -4 28 1 44 27 15 26 28
34 60 40 47 8 54 22 14 27 -32 4 -44 28 -14 28 12 0 21 5 21 11 0 7 12 23 27
37 21 19 30 22 44 14 26 -16 45 9 29 38 -9 16 -9 25 -1 33 8 8 11 6 11 -6 0
-21 16 -22 28 -1 7 13 11 12 26 -10 9 -14 22 -26 29 -26 9 0 8 3 -1 9 -8 4
-13 17 -12 27 4 35 0 45 -22 54 l-23 9 22 7 c12 3 25 15 29 26 5 18 8 18 29 4
21 -14 25 -13 59 21 20 20 36 40 36 45 0 9 37 48 45 48 3 0 5 -11 5 -24 0 -21
-51 -76 -72 -76 -4 0 -8 -7 -8 -15 0 -22 25 -18 41 5 11 15 18 17 29 10 13 -9
10 -14 -15 -35 -32 -26 -31 -26 3 -44 l23 -12 -23 -23 c-13 -13 -30 -26 -38
-29 -10 -4 -8 -6 7 -6 12 -1 25 4 28 9 3 6 13 10 21 10 10 0 13 -7 8 -25 -8
-32 21 -46 41 -19 7 11 17 15 22 10 4 -4 -1 -13 -12 -20 -10 -6 -32 -23 -48
-39 -16 -15 -35 -27 -43 -27 -16 0 -19 26 -4 35 20 12 11 37 -13 33 -35 -4
-65 30 -57 67 6 30 6 30 18 7 7 -12 17 -20 23 -17 15 10 10 41 -10 59 -19 17
-20 17 -32 -2 -7 -11 -19 -18 -26 -15 -16 6 -17 -20 -2 -49 8 -14 8 -23 0 -31
-14 -14 -14 -54 0 -63 8 -5 6 -10 -5 -16 -13 -8 -16 -18 -11 -51 8 -55 -8 -95
-42 -107 -16 -6 -39 -17 -53 -26 -14 -8 -33 -18 -42 -21 -9 -3 -18 -12 -20
-21 -2 -8 -19 -21 -38 -27 -27 -9 -35 -17 -35 -36 0 -19 -6 -25 -28 -27 -18
-2 -31 -11 -37 -26 -17 -45 -87 -67 -79 -25 4 19 -23 59 -40 59 -10 0 -7 -8
10 -26 l24 -26 -30 -24 c-30 -25 -30 -25 -5 -22 16 2 24 -2 22 -10 -1 -9 486
-12 2413 -12 l2415 0 0 4600 0 4600 -4600 0 -4600 0 0 -4600z m3058 4290 c17
-28 4 -50 -15 -25 -14 21 -17 45 -5 45 4 0 13 -9 20 -20z m3418 -457 c-10 -10
-19 5 -10 18 6 11 8 11 12 0 2 -7 1 -15 -2 -18z m-2186 -723 c0 -5 -4 -10 -10
-10 -5 0 -10 5 -10 10 0 6 5 10 10 10 6 0 10 -4 10 -10z m80 -30 c0 -5 -4 -10
-10 -10 -5 0 -10 5 -10 10 0 6 5 10 10 10 6 0 10 -4 10 -10z m-70 -24 c0 -38
56 -61 72 -31 11 19 28 19 28 0 0 -8 -4 -15 -10 -15 -5 0 -10 -16 -10 -35 0
-19 -4 -35 -10 -35 -5 0 -10 -5 -10 -11 0 -8 4 -8 14 0 11 9 17 6 31 -15 9
-14 15 -35 12 -45 -4 -14 0 -19 14 -19 12 0 21 10 27 32 4 17 13 33 20 36 19
6 14 -49 -5 -64 -14 -10 -15 -15 -6 -25 10 -10 15 -9 28 1 12 10 15 10 15 -3
0 -8 -5 -17 -12 -19 -7 -3 -9 -14 -4 -32 8 -34 43 -33 38 1 -2 12 2 24 8 28 5
3 10 -1 10 -9 0 -10 9 -16 25 -16 14 0 25 5 25 10 0 6 5 10 11 10 6 0 9 -9 6
-20 -6 -24 15 -27 33 -5 11 13 15 13 21 3 6 -8 2 -18 -9 -26 -15 -12 -15 -13
5 -18 12 -3 24 -12 27 -20 7 -19 32 -18 40 1 9 24 26 17 26 -9 0 -37 17 -40
36 -6 20 33 34 39 34 14 0 -9 8 -23 18 -30 13 -10 14 -15 5 -25 -10 -10 -14
-9 -19 4 -3 9 -10 17 -15 17 -5 0 -2 -14 7 -32 15 -29 18 -30 29 -14 11 14 17
15 34 6 12 -6 38 -10 59 -8 36 3 37 2 36 -29 -1 -18 3 -33 9 -33 7 0 7 -4 -1
-12 -7 -7 -12 -18 -12 -25 0 -11 5 -11 20 -3 11 6 18 16 14 22 -7 10 9 9 56
-3 8 -2 15 2 16 9 1 6 2 15 3 19 0 4 6 2 13 -5 9 -9 8 -15 -6 -25 -16 -12 -17
-16 -5 -38 l14 -24 3 23 c2 12 10 22 18 22 8 0 14 9 14 19 0 28 19 36 35 15
20 -26 18 -44 -2 -45 -12 0 -13 -2 -5 -6 7 -3 26 0 42 7 23 10 33 9 54 -5 29
-19 34 -35 11 -35 -8 0 -15 5 -15 10 0 6 -11 10 -24 10 -14 0 -28 -4 -31 -10
-3 -5 -15 -10 -26 -10 -10 0 -19 -4 -19 -9 0 -10 167 -24 183 -14 7 3 4 -3 -5
-14 -10 -11 -18 -28 -18 -39 0 -16 7 -19 50 -19 32 0 54 5 59 14 12 19 28 6
41 -34 6 -19 18 -35 26 -35 19 0 18 -9 -3 -32 -13 -14 -14 -21 -5 -27 8 -5 6
-12 -8 -24 -11 -9 -20 -25 -20 -34 1 -17 1 -17 11 0 5 9 18 17 28 17 11 0 22
7 25 16 3 9 11 12 18 8 27 -17 83 -20 94 -6 15 20 54 -5 54 -35 0 -27 -18 -30
-36 -5 -12 16 -13 16 -14 0 0 -26 -19 -32 -41 -12 -10 9 -22 15 -25 11 -9 -9
5 -27 22 -27 8 0 14 -4 14 -10 0 -16 -33 -11 -69 11 -18 11 -36 18 -39 15 -3
-4 0 -6 6 -6 7 0 12 -10 12 -21 0 -16 5 -20 20 -16 15 4 20 0 20 -14 0 -24 25
-25 35 -1 6 15 8 14 16 -5 12 -31 33 -30 25 1 -4 16 -1 26 9 30 11 4 15 -2 15
-21 0 -17 12 -37 38 -59 23 -21 33 -36 26 -41 -6 -4 -13 -16 -17 -26 -9 -24
-37 -33 -48 -16 -5 8 -9 26 -9 42 0 17 -5 27 -15 27 -20 0 -31 -28 -16 -43 6
-6 11 -18 11 -26 0 -10 -10 -6 -30 14 -16 16 -33 26 -36 22 -4 -3 -15 -2 -25
3 -15 9 -19 5 -25 -25 -4 -25 -11 -35 -25 -35 -23 0 -25 18 -4 26 8 4 15 15
15 25 0 20 -15 26 -25 9 -9 -15 -35 -12 -35 4 0 8 7 16 15 20 21 8 19 26 -3
26 -22 0 -79 -27 -87 -41 -10 -15 -35 -10 -35 6 0 8 7 15 16 15 8 0 13 4 9 10
-3 5 -20 1 -41 -10 -19 -11 -46 -20 -59 -20 -29 0 -30 -7 -11 -44 11 -23 15
-24 26 -11 13 16 53 11 79 -9 11 -9 13 -7 8 9 -8 26 30 55 58 45 19 -7 19 -7
-2 -14 -28 -9 -66 -72 -58 -97 5 -14 16 -19 39 -19 20 0 40 -8 50 -19 10 -11
25 -17 37 -14 12 3 19 0 19 -8 0 -10 3 -10 12 -1 18 18 38 14 38 -8 0 -11 4
-20 9 -20 5 0 16 -3 25 -6 11 -4 16 -1 16 10 0 9 -7 19 -15 22 -8 4 -15 10
-15 15 0 17 34 9 57 -12 l22 -22 -51 -24 c-46 -21 -53 -22 -73 -9 -19 12 -29
13 -54 3 -34 -12 -39 -28 -17 -46 11 -9 15 -9 18 1 4 10 16 9 56 -5 55 -20 72
-17 72 13 0 10 5 22 10 25 14 9 12 -21 -2 -46 -11 -17 -10 -22 3 -32 9 -7 18
-21 21 -32 2 -14 11 -20 32 -20 16 0 31 -6 34 -14 3 -9 -1 -11 -17 -6 -12 4
-21 2 -21 -4 0 -6 5 -11 10 -11 6 0 10 -11 10 -25 0 -19 -9 -29 -35 -42 -20
-9 -34 -22 -31 -29 5 -14 -13 -34 -30 -34 -9 0 -10 8 -4 29 13 46 -5 59 -25
17 -19 -40 -44 -47 -52 -16 -8 29 -27 19 -34 -16 -5 -24 -7 -26 -14 -11 -5 12
-14 16 -26 12 -15 -5 -19 -2 -17 16 2 15 -3 24 -14 27 -11 2 -18 -3 -18 -11 0
-16 -46 -16 -84 -1 -14 5 -17 3 -14 -12 2 -15 20 -28 66 -51 2 0 6 -14 8 -31
5 -34 -17 -50 -36 -26 -18 20 -33 17 -27 -6 6 -25 -3 -25 -45 -2 -28 16 -53
18 -163 16 -71 -1 -130 -3 -130 -4 0 -1 -40 -11 -90 -23 -78 -19 -90 -25 -95
-46 -3 -14 -12 -27 -19 -29 -10 -3 -12 0 -8 11 11 28 -10 28 -52 0 -43 -28
-49 -38 -28 -46 6 -2 9 -8 4 -12 -4 -5 -13 -3 -19 3 -20 20 -40 15 -33 -8 8
-25 -20 -28 -33 -4 -8 15 -11 14 -25 -6 -9 -13 -26 -23 -39 -24 -18 -1 -24 -9
-30 -43 -4 -23 -12 -52 -18 -64 -8 -14 -9 -24 -2 -31 17 -17 33 1 26 29 -5 18
-3 24 5 19 6 -4 11 -14 11 -22 0 -8 9 -14 20 -14 17 0 19 4 14 25 -13 51 62
90 86 45 13 -25 40 -26 38 -2 -4 51 3 73 27 84 18 8 24 17 19 30 -3 12 0 18
10 18 9 0 16 -4 16 -10 0 -17 26 -11 45 10 19 22 83 54 130 65 45 12 115 13
121 3 3 -5 21 -6 40 -2 29 5 34 4 34 -14 0 -12 -16 -30 -41 -46 l-41 -28 -22
21 c-28 26 -46 27 -39 2 3 -10 0 -22 -6 -25 -26 -16 -9 -109 26 -144 7 -7 13
-20 13 -27 0 -22 47 -48 73 -41 12 3 45 -1 74 -10 l51 -16 74 32 c129 57 137
59 143 51 3 -5 -9 -14 -25 -19 -16 -6 -35 -22 -42 -36 -10 -24 -20 -30 -40
-27 -5 0 -8 -10 -8 -23 0 -13 -7 -26 -15 -30 -8 -3 -15 -1 -15 4 0 14 -38 22
-57 11 -16 -8 -15 -11 10 -22 27 -12 34 -33 19 -56 -5 -8 -13 -9 -22 -3 -26
17 -44 12 -25 -6 12 -12 27 -15 56 -11 39 5 40 4 24 -13 -9 -10 -34 -20 -55
-24 -57 -9 -50 -26 8 -20 34 3 53 0 67 -11 19 -15 19 -17 3 -26 -10 -6 -18
-14 -18 -19 0 -16 33 -11 68 10 19 12 31 17 28 12 -2 -4 -1 -14 4 -22 7 -12
11 -12 25 0 10 8 21 24 26 37 8 23 49 33 49 13 0 -5 4 -10 9 -10 5 0 7 8 4 19
-5 20 18 42 25 23 6 -19 17 -14 68 31 78 69 115 111 109 125 -6 17 21 57 29
44 3 -6 3 -17 0 -26 -4 -9 -1 -16 6 -16 7 0 19 -8 26 -17 15 -22 19 -18 27 25
4 18 2 32 -3 32 -6 0 -10 -8 -10 -17 -1 -14 -4 -12 -15 7 -8 14 -14 30 -15 35
0 17 50 16 57 -1 4 -12 13 -7 40 22 32 36 34 36 48 18 14 -18 15 -18 21 4 8
27 24 29 24 2 0 -30 16 -25 61 19 40 38 79 46 79 16 0 -8 9 -10 25 -7 28 5 34
-14 10 -32 -11 -8 -14 -20 -9 -44 7 -33 18 -41 30 -20 4 6 2 14 -4 16 -11 3
-18 42 -8 42 2 0 12 3 20 6 12 5 15 2 10 -10 -3 -9 -1 -30 5 -48 8 -21 8 -35
1 -42 -18 -18 -12 -38 10 -31 14 5 20 2 20 -9 0 -9 -4 -16 -8 -16 -4 0 -15
-17 -25 -37 -12 -27 -13 -40 -5 -50 7 -9 7 -17 0 -26 -6 -7 -10 -27 -10 -45 1
-20 -7 -41 -19 -55 -11 -12 -18 -28 -16 -35 3 -7 -2 -19 -10 -25 -8 -7 -17
-21 -19 -31 -1 -11 -9 -21 -17 -24 -8 -3 -11 0 -7 7 4 6 1 11 -8 11 -23 0 -28
-17 -7 -23 14 -3 18 -11 14 -25 -2 -11 0 -23 6 -26 16 -10 14 -36 -3 -36 -7 0
-16 10 -19 22 -6 21 -7 21 -25 5 -10 -9 -25 -17 -32 -17 -11 0 -11 -3 -2 -12
7 -7 12 -22 12 -35 0 -13 5 -23 10 -23 6 0 10 -7 10 -15 0 -20 -19 -19 -42 1
-16 16 -18 15 -24 -1 -5 -12 0 -24 14 -36 23 -18 29 -39 11 -39 -15 0 -41 -68
-34 -91 8 -25 -20 -26 -34 -1 -18 31 -32 1 -19 -41 11 -37 4 -63 -11 -38 -12
18 -30 -14 -24 -40 4 -14 0 -19 -15 -19 -15 0 -21 -9 -26 -42 -4 -24 -3 -44 3
-48 16 -9 18 -52 4 -57 -8 -3 -13 4 -13 15 0 15 -9 21 -41 25 -23 3 -46 11
-50 19 -6 9 -9 7 -9 -9 0 -12 5 -25 10 -28 6 -3 10 -13 10 -22 0 -16 28 -42
45 -42 6 0 2 4 -7 10 -18 10 -26 59 -10 59 4 0 16 -13 25 -30 10 -16 22 -30
28 -30 5 0 9 -4 9 -10 0 -5 -6 -10 -14 -10 -8 0 -24 -13 -35 -29 -21 -29 -21
-29 -1 -34 23 -6 26 -37 8 -67 -10 -16 -10 -24 0 -40 14 -23 16 -50 3 -50 -5
0 -13 -9 -16 -21 -5 -14 -10 -17 -18 -11 -15 13 -70 7 -75 -7 -2 -6 -9 -11
-17 -11 -7 0 -18 -7 -25 -16 -11 -13 -10 -16 8 -21 27 -7 27 -13 1 -59 -15
-27 -17 -40 -9 -48 8 -8 15 -6 24 7 13 16 36 24 36 11 0 -4 -7 -12 -16 -19
-14 -10 -13 -14 15 -38 36 -30 38 -37 11 -37 -10 0 -23 -6 -27 -14 -4 -7 -18
-18 -30 -24 -17 -10 -21 -21 -21 -59 0 -32 5 -51 16 -60 16 -11 16 -12 -1 -13
-10 0 -27 5 -39 11 -24 13 -33 6 -24 -18 6 -15 8 -15 16 -3 8 13 10 12 10 -2
0 -10 7 -18 15 -18 8 0 15 -4 15 -10 0 -14 -7 -13 -34 6 -18 11 -26 12 -31 3
-5 -6 -1 -16 9 -21 9 -5 16 -16 16 -23 0 -20 -39 -19 -46 0 -4 8 -12 15 -20
15 -8 0 -11 -6 -8 -15 4 -8 12 -15 20 -15 8 0 14 -7 14 -15 0 -8 9 -15 20 -15
11 0 20 -7 20 -15 0 -20 -14 -19 -35 1 -13 13 -18 14 -33 3 -9 -7 -19 -14 -21
-16 -1 -1 1 -8 5 -15 5 -7 10 -28 11 -46 1 -18 12 -46 24 -63 22 -31 20 -50
-4 -31 -17 15 -27 6 -27 -25 0 -14 -6 -23 -15 -23 -10 0 -15 -7 -13 -17 2 -10
-3 -18 -12 -18 -10 0 -15 -11 -16 -31 0 -35 -39 -104 -59 -104 -20 0 -6 39 19
52 11 6 22 12 24 13 5 5 -29 55 -37 55 -3 0 -6 -15 -6 -32 0 -28 -4 -33 -30
-39 -16 -4 -24 -7 -16 -8 9 -1 11 -8 6 -23 -4 -13 -6 -35 -6 -50 1 -29 -5 -32
-49 -28 -21 2 -22 0 -11 -14 11 -13 9 -19 -15 -41 -15 -14 -24 -28 -20 -32 3
-4 12 -1 18 5 7 7 19 12 27 12 10 0 7 -8 -11 -27 -20 -22 -25 -35 -21 -60 3
-18 9 -33 14 -33 12 0 11 -27 -1 -35 -6 -3 -14 4 -20 17 -8 19 -9 15 -7 -22 1
-29 -2 -45 -10 -46 -23 -3 -28 -4 -42 -13 -12 -8 -13 -12 -1 -26 9 -11 10 -19
2 -27 -6 -6 -8 -17 -5 -24 3 -8 -1 -14 -10 -14 -8 0 -17 -7 -21 -15 -3 -8 -15
-15 -26 -15 -21 0 -28 -16 -9 -22 7 -2 13 -16 15 -31 3 -32 -21 -37 -42 -9
-13 16 -13 16 -14 0 0 -10 5 -18 10 -18 16 0 11 -27 -6 -34 -10 -4 -14 -12
-10 -22 9 -24 -3 -37 -21 -23 -10 9 -17 9 -21 2 -4 -6 -18 -13 -32 -15 -25 -4
-25 -4 7 -24 38 -22 42 -34 13 -34 -15 0 -20 -7 -20 -25 0 -15 -7 -28 -17 -32
-10 -4 -22 -12 -26 -20 -4 -7 -14 -13 -21 -13 -8 0 -17 -7 -20 -16 -4 -11 -15
-15 -36 -12 -16 2 -27 1 -24 -4 3 -4 16 -8 30 -8 30 0 31 -18 2 -29 -13 -5
-31 -19 -40 -30 -10 -12 -27 -21 -37 -21 -21 0 -65 -53 -54 -64 9 -8 -28 -47
-38 -40 -5 3 -9 12 -9 20 0 19 -38 56 -45 44 -3 -5 -1 -19 5 -30 8 -14 7 -26
-2 -42 -7 -13 -13 -24 -13 -25 0 -1 -17 2 -37 6 -28 7 -38 5 -42 -5 -3 -8 -12
-14 -20 -14 -9 0 -13 -10 -12 -27 1 -32 -17 -44 -22 -13 -4 25 -32 27 -39 2
-4 -19 -62 -55 -79 -50 -5 1 -21 -10 -36 -25 -33 -33 -54 -36 -33 -3 12 18 13
25 3 33 -26 19 -59 13 -68 -13 -5 -13 -16 -24 -25 -24 -21 0 -19 -17 5 -30 28
-15 25 -40 -4 -40 -27 0 -59 36 -49 54 4 5 -8 0 -25 -12 -40 -29 -47 -41 -33
-55 8 -8 14 -8 23 1 20 20 28 13 16 -13 -10 -22 -16 -25 -40 -20 -22 5 -28 3
-28 -10 0 -12 -6 -16 -20 -12 -10 3 -21 0 -23 -7 -3 -7 -11 -3 -20 9 -13 17
-18 18 -29 7 -11 -11 -10 -16 5 -26 9 -7 17 -16 17 -20 0 -11 -46 -6 -59 7
-10 10 -15 8 -27 -8 -13 -17 -16 -18 -24 -5 -7 12 -12 12 -22 2 -16 -16 -28
-15 -28 2 0 8 -10 16 -22 18 -17 2 -22 9 -20 22 3 17 2 18 -12 7 -13 -11 -14
-17 -4 -28 9 -11 9 -16 -3 -24 -9 -6 -18 -3 -26 7 -8 10 -19 14 -30 10 -15 -6
-15 -9 -3 -16 8 -5 11 -12 7 -16 -3 -4 -12 -2 -20 4 -7 6 -23 9 -34 6 -15 -4
-25 0 -32 15 -7 12 -19 21 -28 21 -15 0 -84 46 -91 60 -1 4 -16 4 -32 2 -22
-3 -30 0 -30 11 0 9 -17 28 -37 44 -21 15 -51 40 -67 55 -17 16 -36 28 -43 28
-7 0 -13 9 -13 20 0 12 -7 20 -16 20 -18 0 -66 48 -91 91 -11 19 -26 29 -40
29 -13 0 -28 9 -35 20 -7 11 -21 20 -30 20 -19 0 -26 36 -8 42 22 7 -11 32
-44 32 -26 0 -36 4 -36 15 0 30 -33 101 -47 101 -7 0 -18 11 -23 25 -5 14 -17
25 -26 25 -12 0 -14 6 -9 28 4 20 1 33 -9 41 -8 7 -18 26 -21 42 -4 16 -10 29
-15 29 -4 0 -10 9 -13 20 -5 20 -27 28 -27 10 0 -5 -5 -10 -11 -10 -6 0 -8 7
-5 16 4 10 -1 37 -10 61 -13 34 -21 42 -35 38 -23 -8 -35 13 -15 28 10 8 14
20 10 35 -8 28 -24 29 -24 1 0 -12 -4 -17 -11 -14 -6 4 -8 22 -4 46 7 38 6 39
-21 39 -22 0 -25 3 -16 12 9 9 8 16 -4 29 -11 12 -12 19 -4 24 16 10 -7 35
-32 35 -16 0 -19 5 -15 22 4 12 1 28 -5 36 -9 10 -8 16 3 23 11 7 11 9 -3 9
-10 0 -18 6 -18 14 0 8 -7 17 -15 20 -14 5 -14 8 0 30 15 23 15 25 -4 36 -12
6 -20 15 -18 20 1 5 -6 15 -16 22 -14 11 -16 19 -9 39 8 20 6 30 -9 50 -10 13
-19 34 -19 47 0 12 -4 22 -9 22 -5 0 -12 24 -15 52 -4 29 -11 57 -15 63 -5 5
-11 32 -15 59 -3 27 -11 55 -17 62 -9 10 -8 18 0 28 9 11 8 15 -4 20 -9 3 -13
11 -10 16 4 6 3 19 -1 28 -12 29 -16 46 -15 72 0 14 -6 43 -14 66 -9 22 -14
49 -13 60 4 30 -13 128 -24 142 -7 8 -7 16 1 26 12 14 4 47 -26 114 -12 27
-12 39 -2 66 11 29 10 38 -4 59 -12 18 -15 41 -13 79 2 29 -1 59 -7 67 -8 10
-7 16 6 25 10 8 13 16 7 22 -5 5 -11 36 -13 69 -3 33 -8 77 -12 97 -4 20 -4
45 0 55 10 23 11 66 2 80 -4 5 -6 27 -5 47 1 20 -2 39 -5 43 -4 3 -1 13 5 21
10 11 9 17 -5 27 -16 11 -16 14 -1 25 10 9 13 22 9 37 -3 13 -2 23 3 23 4 0 9
51 9 113 1 61 4 126 5 142 2 17 0 38 -5 48 -6 12 -3 17 9 17 13 0 15 6 11 30
-5 21 -2 32 9 38 13 7 14 13 5 31 -11 19 -8 23 18 39 37 21 43 34 31 68 -9 21
-7 27 8 31 24 6 48 43 28 43 -8 0 -18 -4 -21 -10 -3 -5 -13 -10 -21 -10 -13 0
-13 2 1 16 11 11 14 25 10 45 -5 22 -3 29 9 29 9 0 16 5 16 10 0 6 -6 10 -14
10 -21 0 -28 101 -8 116 14 10 14 14 3 28 -8 9 -11 20 -7 24 4 4 12 -1 17 -11
6 -9 14 -15 18 -12 12 7 1 52 -15 66 -8 6 -13 21 -13 33 1 17 2 17 6 4 2 -10
9 -18 14 -18 9 0 13 20 9 53 -1 10 4 25 10 33 7 7 10 23 7 34 -7 28 34 45 75
31 23 -8 32 -7 47 7 10 9 26 22 37 29 17 11 17 12 2 12 -10 1 -18 -3 -18 -9 0
-5 -13 -10 -29 -10 -16 0 -32 -6 -35 -12 -3 -9 -8 -8 -16 5 -14 21 -34 22 -54
2 -10 -10 -17 -12 -21 -5 -13 21 4 38 44 45 25 4 41 12 41 21 0 8 -4 14 -10
14 -5 0 -10 7 -10 15 0 8 9 15 19 15 15 0 19 6 16 28 -2 24 -6 27 -35 24 -29
-2 -30 -1 -16 14 9 8 16 22 16 30 0 8 6 25 14 37 24 38 29 67 12 67 -20 0 -20
10 0 25 23 16 30 103 9 112 -14 5 -14 8 3 23 11 10 30 20 42 22 34 5 38 28 5
28 -15 0 -24 4 -20 10 3 6 17 7 31 4 18 -5 24 -2 24 10 0 9 7 16 15 16 17 0
20 16 5 25 -15 9 -12 25 5 25 11 0 15 12 15 49 0 34 4 51 15 55 8 3 15 10 15
16 0 18 27 40 49 40 12 0 21 5 21 11 0 7 -9 9 -23 5 -16 -4 -26 1 -36 15 -15
26 -7 37 15 19 13 -12 21 -11 50 5 19 10 34 22 34 27 0 18 42 7 47 -13 4 -15
8 -17 13 -8 8 12 6 18 -25 77 -9 18 -14 36 -10 40 4 4 10 1 12 -5 5 -14 33
-18 33 -5 0 5 -9 17 -20 27 -15 13 -17 22 -10 29 13 13 49 -28 50 -55 0 -8 15
-26 33 -39 17 -13 36 -29 40 -37 9 -15 37 -18 37 -4 0 5 -7 14 -15 21 -19 16
-9 33 16 27 23 -6 24 2 4 29 -8 10 -15 26 -15 35 0 19 40 32 65 23 10 -4 21
-1 25 7 5 7 12 10 17 6 9 -9 -36 -47 -52 -44 -5 1 -11 -7 -13 -18 -2 -17 3
-20 37 -20 31 -1 41 3 47 20 6 19 7 19 11 -4 5 -26 62 -87 77 -83 5 2 16 0 24
-3 11 -4 9 -9 -9 -25 -24 -19 -24 -19 -3 -20 12 0 27 7 34 15 10 12 18 8 54
-30 l41 -44 49 13 c26 8 52 19 56 26 5 8 19 11 38 7 23 -5 34 -1 52 18 16 17
27 22 38 16 14 -8 77 13 92 30 5 5 63 5 85 -1 26 -6 105 1 105 10 0 6 -5 10
-12 10 -6 0 -20 8 -30 17 -14 13 -21 14 -30 5 -17 -17 -28 -15 -28 7 0 11 -6
21 -12 24 -7 2 1 4 18 3 17 -1 37 -6 45 -12 8 -7 24 -15 37 -18 12 -4 22 -12
22 -17 0 -5 4 -9 9 -9 6 0 8 17 5 38 -2 20 -2 31 2 25 8 -18 34 -16 34 3 0 11
6 14 21 9 13 -4 25 -1 32 8 7 8 35 27 62 42 66 36 75 44 68 61 -3 9 2 14 16
14 25 0 25 -2 6 43 -21 50 -19 54 10 27 22 -20 25 -21 31 -6 3 9 1 23 -6 31
-12 14 -9 18 8 13 4 -2 6 -6 5 -10 -1 -3 4 -9 12 -12 11 -4 15 3 15 29 0 19 4
35 10 35 5 0 16 16 24 35 17 41 46 47 46 11z m116 -93 c-11 -11 -19 6 -11 24
8 17 8 17 12 0 3 -10 2 -21 -1 -24z m34 -22 c0 -17 -18 -21 -24 -6 -3 9 0 15
9 15 8 0 15 -4 15 -9z m97 -73 c-3 -8 -6 -5 -6 6 -1 11 2 17 5 13 3 -3 4 -12
1 -19z m-1157 -34 c0 -8 -5 -12 -10 -9 -6 4 -8 11 -5 16 9 14 15 11 15 -7z
m700 2 c0 -3 -4 -8 -10 -11 -5 -3 -10 -1 -10 4 0 6 5 11 10 11 6 0 10 -2 10
-4z m-753 -28 c-3 -8 -6 -5 -6 6 -1 11 2 17 5 13 3 -3 4 -12 1 -19z m223 -13
c0 -8 -7 -15 -15 -15 -8 0 -15 7 -15 15 0 8 7 15 15 15 8 0 15 -7 15 -15z
m-249 -28 c-8 -8 -11 -7 -11 4 0 20 13 34 18 19 3 -7 -1 -17 -7 -23z m674 13
c3 -5 1 -10 -4 -10 -6 0 -11 5 -11 10 0 6 2 10 4 10 3 0 8 -4 11 -10z m-485
-21 c0 -11 -4 -17 -10 -14 -5 3 -10 13 -10 21 0 8 5 14 10 14 6 0 10 -9 10
-21z m1597 -1 c-3 -8 -6 -5 -6 6 -1 11 2 17 5 13 3 -3 4 -12 1 -19z m-2431
-15 c-10 -10 -19 5 -10 18 6 11 8 11 12 0 2 -7 1 -15 -2 -18z m300 -9 c-6 -23
-4 -26 12 -22 15 4 18 1 15 -13 -6 -23 -33 -26 -33 -4 0 8 -4 15 -10 15 -14 0
-13 23 2 38 18 18 21 15 14 -14z m654 16 c0 -5 -4 -10 -10 -10 -5 0 -10 5 -10
10 0 6 5 10 10 10 6 0 10 -4 10 -10z m-790 -10 c0 -5 -4 -10 -9 -10 -6 0 -13
5 -16 10 -3 6 1 10 9 10 9 0 16 -4 16 -10z m551 -48 c-6 -2 -11 -10 -11 -18 0
-8 -4 -14 -10 -14 -13 0 -13 15 -1 38 5 9 13 26 17 37 7 17 8 16 12 -10 2 -16
-1 -31 -7 -33z m212 18 c13 -15 14 -20 3 -20 -8 0 -17 7 -20 16 -4 10 -13 13
-27 9 -15 -5 -19 -4 -15 4 11 17 40 13 59 -9z m287 10 c0 -5 -7 -10 -15 -10
-8 0 -15 5 -15 10 0 6 7 10 15 10 8 0 15 -4 15 -10z m-1093 -22 c7 17 33 15
33 -3 0 -8 -6 -15 -14 -15 -8 0 -17 -13 -21 -30 -4 -16 -13 -30 -21 -30 -17 0
-19 16 -3 26 6 4 9 19 5 38 -5 24 -3 27 5 16 8 -11 12 -12 16 -2z m948 3 c7
-12 -12 -24 -25 -16 -11 7 -4 25 10 25 5 0 11 -4 15 -9z m-985 -21 c0 -5 -5
-10 -11 -10 -5 0 -7 5 -4 10 3 6 8 10 11 10 2 0 4 -4 4 -10z m480 -10 c0 -5
-7 -10 -16 -10 -8 0 -12 5 -9 10 3 6 10 10 16 10 5 0 9 -4 9 -10z m217 4 c-3
-3 -12 -4 -19 -1 -8 3 -5 6 6 6 11 1 17 -2 13 -5z m1533 -4 c0 -5 -7 -10 -16
-10 -8 0 -12 5 -9 10 3 6 10 10 16 10 5 0 9 -4 9 -10z m-1580 -94 c-5 -5 -10
-6 -10 -2 0 5 -7 3 -15 -4 -18 -15 -26 -8 -43 35 -12 28 -11 29 3 10 16 -20
16 -20 31 -1 8 11 14 25 14 30 1 6 7 -4 16 -23 10 -24 11 -38 4 -45z m-740 54
c0 -5 -2 -10 -4 -10 -3 0 -8 5 -11 10 -3 6 -1 10 4 10 6 0 11 -4 11 -10z m803
-3 c3 -8 1 -20 -3 -27 -7 -11 -11 -11 -24 -1 -9 8 -16 20 -16 27 0 18 36 18
43 1z m1614 -19 c-3 -8 -6 -5 -6 6 -1 11 2 17 5 13 3 -3 4 -12 1 -19z m123 18
c0 -3 -4 -8 -10 -11 -5 -3 -10 -1 -10 4 0 6 5 11 10 11 6 0 10 -2 10 -4z m-68
-21 c0 -5 -5 -11 -11 -13 -6 -2 -11 4 -11 13 0 9 5 15 11 13 6 -2 11 -8 11
-13z m-3172 -20 c0 -8 -4 -15 -10 -15 -5 0 -10 7 -10 15 0 8 5 15 10 15 6 0
10 -7 10 -15z m648 -4 c3 -8 -1 -12 -9 -9 -7 2 -15 10 -17 17 -3 8 1 12 9 9 7
-2 15 -10 17 -17z m72 -1 c0 -5 -2 -10 -4 -10 -3 0 -8 5 -11 10 -3 6 -1 10 4
10 6 0 11 -4 11 -10z m2735 -138 c0 -18 -20 -15 -23 4 -3 10 1 15 10 12 7 -3
13 -10 13 -16z m615 -17 c0 -8 -9 -15 -20 -15 -20 0 -26 11 -13 23 12 13 33 7
33 -8z m-136 -61 c4 -9 4 -19 2 -22 -10 -9 -36 8 -36 23 0 20 26 19 34 -1z
m-325 -73 c-26 -21 -35 -20 -26 4 4 8 16 15 28 15 21 0 21 0 -2 -19z m171 -97
c0 -8 -4 -12 -10 -9 -5 3 -10 10 -10 16 0 5 5 9 10 9 6 0 10 -7 10 -16z m120
2 c0 -11 -19 -15 -25 -6 -3 5 1 10 9 10 9 0 16 -2 16 -4z m-75 -77 c9 -25 9
-39 1 -51 -8 -13 -7 -23 2 -38 15 -24 8 -40 -16 -40 -35 0 -44 14 -30 46 7 16
17 32 22 35 18 14 -3 41 -29 37 -15 -3 -26 0 -29 9 -11 27 -6 33 19 27 16 -4
25 -2 25 6 0 24 24 3 35 -31z m150 -58 c-9 -16 -25 -3 -18 15 4 10 9 12 15 6
6 -6 7 -15 3 -21z m-95 -13 c0 -16 -3 -19 -11 -11 -6 6 -8 16 -5 22 11 17 16
13 16 -11z m-525 -18 c-3 -5 -10 -10 -16 -10 -5 0 -9 5 -9 10 0 6 7 10 16 10
8 0 12 -4 9 -10z m126 -53 c-8 -8 -11 -7 -11 4 0 9 3 19 7 23 4 4 9 2 11 -4 3
-7 -1 -17 -7 -23z m396 -83 c-3 -3 -12 -4 -19 -1 -8 3 -5 6 6 6 11 1 17 -2 13
-5z m163 -88 c0 -3 -4 -8 -10 -11 -5 -3 -10 -1 -10 4 0 6 5 11 10 11 6 0 10
-2 10 -4z m-331 -60 c8 -10 9 -16 1 -21 -13 -8 -30 3 -30 21 0 18 14 18 29 0z
m64 -158 c6 -4 8 -10 4 -14 -11 -11 -37 17 -37 41 0 34 15 41 18 8 2 -15 9
-31 15 -35z m37 32 c0 -11 -4 -20 -10 -20 -5 0 -10 9 -10 20 0 11 5 20 10 20
6 0 10 -9 10 -20z m-62 -71 c18 -29 9 -34 -23 -13 -23 15 -28 15 -36 3 -6 -9
-9 -10 -9 -2 0 12 27 32 45 33 6 0 16 -9 23 -21z m-3321 -45 c-9 -9 -28 6 -21
18 4 6 10 6 17 -1 6 -6 8 -13 4 -17z m3470 -120 c-9 -9 -28 6 -21 18 4 6 10 6
17 -1 6 -6 8 -13 4 -17z m-3472 -64 c-3 -5 -10 -10 -16 -10 -5 0 -9 5 -9 10 0
6 7 10 16 10 8 0 12 -4 9 -10z m3615 -70 c0 -11 -6 -20 -14 -20 -9 0 -12 7 -9
20 3 11 9 20 14 20 5 0 9 -9 9 -20z m37 -2 c-3 -8 -6 -5 -6 6 -1 11 2 17 5 13
3 -3 4 -12 1 -19z m53 -8 c0 -5 -5 -10 -11 -10 -5 0 -7 5 -4 10 3 6 8 10 11
10 2 0 4 -4 4 -10z m-125 -30 c-3 -5 -13 -10 -21 -10 -8 0 -14 5 -14 10 0 6 9
10 21 10 11 0 17 -4 14 -10z m-3585 -9 c0 -6 -4 -13 -10 -16 -5 -3 -10 1 -10
9 0 9 5 16 10 16 6 0 10 -4 10 -9z m3770 -1 c0 -5 -2 -10 -4 -10 -3 0 -8 5
-11 10 -3 6 -1 10 4 10 6 0 11 -4 11 -10z m-1013 -56 c-3 -3 -12 -4 -19 -1 -8
3 -5 6 6 6 11 1 17 -2 13 -5z m263 -265 c0 -11 -4 -17 -10 -14 -5 3 -10 13
-10 21 0 8 5 14 10 14 6 0 10 -9 10 -21z m745 -99 c3 -5 -1 -10 -9 -10 -9 0
-16 5 -16 10 0 6 4 10 9 10 6 0 13 -4 16 -10z m-5455 -251 c0 -5 -4 -9 -10 -9
-5 0 -10 7 -10 16 0 8 5 12 10 9 6 -3 10 -10 10 -16z m5260 -289 c0 -5 -4 -10
-10 -10 -5 0 -10 5 -10 10 0 6 5 10 10 10 6 0 10 -4 10 -10z m-70 -51 c0 -5
-4 -9 -10 -9 -5 0 -10 7 -10 16 0 8 5 12 10 9 6 -3 10 -10 10 -16z m30 -59 c0
-5 -4 -10 -10 -10 -5 0 -10 5 -10 10 0 6 5 10 10 10 6 0 10 -4 10 -10z m-39
-61 c-9 -23 -10 -22 -10 11 -1 23 2 31 9 24 7 -7 7 -19 1 -35z m-74 -105 c-9
-9 -28 6 -21 18 4 6 10 6 17 -1 6 -6 8 -13 4 -17z m10 -46 c-3 -8 -6 -5 -6 6
-1 11 2 17 5 13 3 -3 4 -12 1 -19z m-42 -178 c3 -5 1 -10 -4 -10 -6 0 -11 5
-11 10 0 6 2 10 4 10 3 0 8 -4 11 -10z m-7 -41 c-10 -5 -18 -17 -18 -25 0 -12
-3 -12 -20 -2 -34 21 -26 28 45 36 6 1 2 -3 -7 -9z m-74 -54 c-4 -8 -10 -12
-15 -9 -14 8 -10 24 6 24 9 0 12 -6 9 -15z m36 -55 c0 -5 -6 -10 -14 -10 -8 0
-18 5 -21 10 -3 6 3 10 14 10 12 0 21 -4 21 -10z m71 -93 c-8 -8 -14 -7 -23 2
-11 10 -9 15 7 27 18 13 20 13 23 -2 2 -9 -1 -21 -7 -27z m-91 -32 c0 -8 -7
-15 -15 -15 -16 0 -20 12 -8 23 11 12 23 8 23 -8z m-150 -321 c0 -8 -4 -12
-10 -9 -5 3 -10 10 -10 16 0 5 5 9 10 9 6 0 10 -7 10 -16z m-64 -231 c-10 -10
-19 5 -10 18 6 11 8 11 12 0 2 -7 1 -15 -2 -18z m-16 -58 c0 -8 -4 -15 -9 -15
-13 0 -22 16 -14 24 11 11 23 6 23 -9z m-2890 -25 c0 -5 -2 -10 -4 -10 -3 0
-8 5 -11 10 -3 6 -1 10 4 10 6 0 11 -4 11 -10z m-1320 -50 c0 -5 -4 -10 -10
-10 -5 0 -10 5 -10 10 0 6 5 10 10 10 6 0 10 -4 10 -10z m4100 -55 c0 -8 -4
-15 -10 -15 -5 0 -10 7 -10 15 0 8 5 15 10 15 6 0 10 -7 10 -15z m-4440 -95
c0 -5 -4 -10 -10 -10 -5 0 -10 5 -10 10 0 6 5 10 10 10 6 0 10 -4 10 -10z
m4305 -159 c7 -12 -12 -24 -25 -16 -11 7 -4 25 10 25 5 0 11 -4 15 -9z m15
-51 c0 -5 -4 -10 -10 -10 -5 0 -10 5 -10 10 0 6 5 10 10 10 6 0 10 -4 10 -10z
m-3670 -155 c0 -8 -7 -15 -15 -15 -8 0 -15 7 -15 15 0 8 7 15 15 15 8 0 15 -7
15 -15z m3470 -165 c0 -5 -2 -10 -4 -10 -3 0 -8 5 -11 10 -3 6 -1 10 4 10 6 0
11 -4 11 -10z m-1982 -341 c-2 -6 -8 -10 -13 -10 -5 0 -11 4 -13 10 -2 6 4 11
13 11 9 0 15 -5 13 -11z m122 -50 c0 -11 -4 -17 -10 -14 -5 3 -10 13 -10 21 0
8 5 14 10 14 6 0 10 -9 10 -21z m1408 2 c3 -8 -1 -12 -9 -9 -7 2 -15 10 -17
17 -3 8 1 12 9 9 7 -2 15 -10 17 -17z m-68 -47 c14 -35 13 -35 -15 -22 -14 6
-25 19 -25 30 0 27 29 22 40 -8z m-1464 -5 c10 -17 -13 -36 -27 -22 -12 12 -4
33 11 33 5 0 12 -5 16 -11z m174 -19 c0 -5 -7 -10 -16 -10 -8 0 -12 5 -9 10 3
6 10 10 16 10 5 0 9 -4 9 -10z m1055 -8 c0 -18 -20 -15 -23 4 -3 10 1 15 10
12 7 -3 13 -10 13 -16z m-1218 -64 c-3 -8 -6 -5 -6 6 -1 11 2 17 5 13 3 -3 4
-12 1 -19z m48 13 c3 -5 1 -12 -5 -16 -5 -3 -10 1 -10 9 0 18 6 21 15 7z m433
-61 c10 -16 10 -20 -1 -20 -14 0 -37 20 -37 32 0 16 25 8 38 -12z m50 -49 c3
-8 -1 -12 -9 -9 -7 2 -15 10 -17 17 -3 8 1 12 9 9 7 -2 15 -10 17 -17z m532 9
c0 -5 -4 -10 -10 -10 -5 0 -10 5 -10 10 0 6 5 10 10 10 6 0 10 -4 10 -10z
m-279 -25 c-1 -15 -24 -12 -29 3 -3 9 2 13 12 10 10 -1 17 -7 17 -13z m64 -23
c0 -18 -20 -15 -23 4 -3 10 1 15 10 12 7 -3 13 -10 13 -16z m95 -11 c0 -23
-16 -36 -25 -22 -3 6 -12 8 -20 4 -9 -3 -15 1 -15 10 0 10 7 13 20 10 11 -3
20 0 20 6 0 6 5 11 10 11 6 0 10 -9 10 -19z m-3719 -24 c-13 -13 -26 -3 -16
12 3 6 11 8 17 5 6 -4 6 -10 -1 -17z m3579 13 c0 -5 -4 -10 -9 -10 -6 0 -13 5
-16 10 -3 6 1 10 9 10 9 0 16 -4 16 -10z m-91 -37 c12 -14 20 -28 18 -30 -10
-9 -55 18 -60 36 -7 30 17 27 42 -6z m161 -4 c0 -5 -4 -9 -10 -9 -5 0 -10 7
-10 16 0 8 5 12 10 9 6 -3 10 -10 10 -16z m427 -1 c-3 -8 -6 -5 -6 6 -1 11 2
17 5 13 3 -3 4 -12 1 -19z m-297 -4 c0 -8 -5 -12 -10 -9 -6 4 -8 11 -5 16 9
14 15 11 15 -7z m47 -6 c-3 -8 -6 -5 -6 6 -1 11 2 17 5 13 3 -3 4 -12 1 -19z
m-247 -43 c0 -3 -9 -5 -20 -5 -11 0 -20 7 -20 15 0 13 4 14 20 5 11 -6 20 -13
20 -15z m50 -11 c0 -8 -7 -14 -15 -14 -15 0 -21 21 -9 33 10 9 24 -2 24 -19z
m260 22 c0 -11 -19 -15 -25 -6 -3 5 1 10 9 10 9 0 16 -2 16 -4z m-145 -26 c3
-5 -1 -10 -9 -10 -9 0 -16 5 -16 10 0 6 4 10 9 10 6 0 13 -4 16 -10z m85 -50
c0 -5 -4 -10 -10 -10 -5 0 -10 5 -10 10 0 6 5 10 10 10 6 0 10 -4 10 -10z
m1920 -28 c0 -7 -4 -10 -10 -7 -5 3 -10 16 -10 28 0 18 2 19 10 7 5 -8 10 -21
10 -28z m250 28 c0 -5 -4 -10 -10 -10 -5 0 -10 5 -10 10 0 6 5 10 10 10 6 0
10 -4 10 -10z m-1050 -100 c0 -5 -2 -10 -4 -10 -3 0 -8 5 -11 10 -3 6 -1 10 4
10 6 0 11 -4 11 -10z m758 -16 c7 4 12 3 12 -3 0 -20 -22 -23 -35 -5 -8 11
-15 23 -15 28 0 6 6 2 13 -9 8 -10 19 -15 25 -11z m72 2 c0 -3 -4 -8 -10 -11
-5 -3 -10 -1 -10 4 0 6 5 11 10 11 6 0 10 -2 10 -4z m-120 -44 c0 -13 -3 -12
-20 3 -11 10 -17 22 -14 27 8 12 34 -11 34 -30z m-90 -32 c0 -5 -4 -10 -10
-10 -5 0 -10 5 -10 10 0 6 5 10 10 10 6 0 10 -4 10 -10z m-655 -9 c7 -12 -12
-24 -25 -16 -11 7 -4 25 10 25 5 0 11 -4 15 -9z m90 0 c7 -12 -12 -24 -25 -16
-11 7 -4 25 10 25 5 0 11 -4 15 -9z m745 -5 c0 -3 -4 -8 -10 -11 -5 -3 -10 -1
-10 4 0 6 5 11 10 11 6 0 10 -2 10 -4z m-205 -43 c36 -39 44 -63 22 -63 -12 0
-28 21 -54 69 -24 44 -14 42 32 -6z m-595 17 c0 -5 -2 -10 -4 -10 -3 0 -8 5
-11 10 -3 6 -1 10 4 10 6 0 11 -4 11 -10z m-160 -20 c0 -5 -5 -10 -11 -10 -5
0 -7 5 -4 10 3 6 8 10 11 10 2 0 4 -4 4 -10z m130 0 c0 -5 -2 -10 -4 -10 -3 0
-8 5 -11 10 -3 6 -1 10 4 10 6 0 11 -4 11 -10z m584 -37 c-5 -17 0 -25 20 -34
32 -15 33 -21 4 -34 -13 -6 -24 -19 -26 -30 -7 -47 -13 -50 -34 -16 l-21 33
27 22 28 22 -20 36 c-23 40 -20 53 9 35 12 -8 17 -18 13 -34z m-55 10 c11 -21
-3 -53 -24 -53 -10 0 -15 -10 -15 -28 0 -40 -21 -65 -51 -59 -23 4 -23 4 9 18
19 8 32 21 32 31 0 25 -29 23 -57 -4 l-23 -22 11 33 c7 19 20 36 30 38 9 3 23
18 29 34 14 33 44 39 59 12z m-614 -12 c-3 -6 -11 -11 -17 -11 -6 0 -6 6 2 15
14 17 26 13 15 -4z m-205 -46 c0 -14 -2 -25 -4 -25 -2 0 -11 11 -20 25 -16 24
-16 25 4 25 15 0 20 -7 20 -25z m675 -55 c3 -5 -1 -10 -9 -10 -9 0 -16 5 -16
10 0 6 4 10 9 10 6 0 13 -4 16 -10z m-35 -55 c12 4 27 1 35 -5 11 -9 15 -9 15
-1 0 19 15 12 25 -11 12 -27 72 -41 62 -14 -6 14 31 51 41 41 9 -8 -33 -65
-49 -65 -22 0 -37 -20 -45 -58 -5 -25 -3 -32 10 -32 31 0 6 -43 -31 -52 -17
-5 -20 -2 -15 11 3 9 10 19 16 24 8 5 6 10 -3 16 -10 6 -27 1 -54 -16 -46 -29
-60 -23 -28 11 25 26 20 56 -5 35 -8 -6 -14 -17 -14 -25 0 -7 -9 -16 -21 -19
-15 -5 -18 -10 -10 -18 20 -20 12 -45 -20 -61 -26 -13 -31 -13 -35 -1 -3 8 4
27 15 41 17 21 19 29 9 36 -8 5 -19 0 -31 -14 l-18 -21 -6 21 c-3 13 -13 22
-25 22 -29 0 -19 34 11 38 34 5 101 49 101 66 0 8 5 27 10 41 8 22 13 25 25
15 8 -6 23 -9 35 -5z m-475 -5 c3 -5 -1 -10 -9 -10 -9 0 -16 5 -16 10 0 6 4
10 9 10 6 0 13 -4 16 -10z m250 1 c3 -5 1 -12 -5 -16 -5 -3 -10 1 -10 9 0 18
6 21 15 7z m-185 -5 c0 -11 -19 -15 -25 -6 -3 5 1 10 9 10 9 0 16 -2 16 -4z
m675 -6 c-3 -5 -10 -10 -16 -10 -5 0 -9 5 -9 10 0 6 7 10 16 10 8 0 12 -4 9
-10z m-37 -38 c6 -18 -15 -14 -22 4 -4 10 -1 14 6 12 6 -2 14 -10 16 -16z
m-503 -2 c3 -5 1 -10 -4 -10 -6 0 -11 5 -11 10 0 6 2 10 4 10 3 0 8 -4 11 -10z
m550 -70 c3 -5 -1 -10 -10 -10 -9 0 -13 5 -10 10 3 6 8 10 10 10 2 0 7 -4 10
-10z m-130 -10 c-3 -5 -10 -10 -16 -10 -5 0 -9 5 -9 10 0 6 7 10 16 10 8 0 12
-4 9 -10z m75 -49 c-15 -29 -30 -35 -30 -13 0 22 8 32 27 32 10 0 11 -5 3 -19z
m-392 -23 c-2 -18 -8 -22 -30 -20 -23 3 -28 -1 -33 -25 -11 -49 -14 -53 -33
-53 -15 0 -19 -7 -17 -35 1 -21 10 -41 21 -49 17 -13 16 -15 -16 -45 -19 -17
-40 -31 -48 -31 -7 0 -24 -8 -38 -17 -27 -17 -72 -24 -80 -12 -2 4 0 10 5 14
6 3 8 12 5 19 -7 17 33 56 57 56 9 0 19 -7 23 -15 8 -21 30 -19 51 5 25 28 14
35 -57 33 -45 -2 -64 -7 -74 -20 -9 -12 -13 -14 -14 -5 0 7 6 20 14 28 8 7 16
19 19 26 3 10 9 10 27 0 20 -12 21 -12 15 8 -6 18 -3 20 17 15 16 -4 29 -1 37
9 17 20 6 50 -15 42 -9 -3 -12 -2 -9 5 4 5 15 7 25 4 20 -6 81 20 78 33 -5 17
29 52 50 52 19 0 23 -5 20 -22z m192 -2 c0 -3 -4 -8 -10 -11 -5 -3 -10 -1 -10
4 0 6 5 11 10 11 6 0 10 -2 10 -4z m70 -10 c0 -7 -7 -19 -16 -27 -8 -7 -13
-21 -11 -31 4 -13 0 -18 -14 -18 -22 0 -26 28 -4 36 8 4 15 14 15 23 0 10 3
21 7 24 11 12 23 8 23 -7z m-245 -34 c6 -4 20 -24 32 -44 21 -36 21 -36 2 -54
-11 -10 -18 -26 -16 -36 3 -10 1 -18 -4 -18 -5 0 -9 5 -9 10 0 6 -7 10 -15 10
-18 0 -20 -26 -2 -33 9 -3 9 -7 0 -17 -9 -10 -15 -5 -29 24 -10 20 -23 36 -30
36 -15 0 -26 27 -14 35 5 3 19 0 30 -7 17 -11 22 -11 29 1 5 8 16 11 25 8 18
-7 22 8 5 18 -6 4 -8 13 -5 21 6 16 -10 29 -19 14 -8 -13 -42 -13 -51 1 -8 14
14 29 33 22 7 -3 13 0 13 6 0 13 10 14 25 3z m165 -69 c0 -13 -9 -27 -22 -34
-19 -10 -20 -9 -13 7 4 11 10 32 13 48 3 20 7 24 13 15 5 -8 9 -24 9 -36z
m-467 -115 c7 -26 1 -38 -21 -38 -13 0 -13 2 4 14 18 14 18 15 2 21 -21 8 -24
25 -4 25 7 0 16 -10 19 -22z m407 12 c-19 -13 -30 -13 -30 0 0 6 10 10 23 10
18 0 19 -2 7 -10z m-490 -20 c0 -5 -4 -10 -10 -10 -5 0 -10 5 -10 10 0 6 5 10
10 10 6 0 10 -4 10 -10z m426 -2 c-3 -7 -9 -21 -12 -31 -7 -19 -25 -18 -32 1
-2 7 3 12 12 12 9 0 16 7 16 15 0 8 5 15 11 15 6 0 8 -6 5 -12z m-128 -21 c2
-10 -3 -17 -12 -17 -10 0 -16 9 -16 21 0 24 23 21 28 -4z m42 13 c0 -5 -2 -10
-4 -10 -3 0 -8 5 -11 10 -3 6 -1 10 4 10 6 0 11 -4 11 -10z m-310 -41 c0 -5
-7 -9 -15 -9 -15 0 -20 12 -9 23 8 8 24 -1 24 -14z m215 1 c3 -5 19 -10 35
-10 28 0 39 -13 47 -57 4 -24 -15 -42 -27 -24 -4 7 -5 23 -2 37 3 19 0 24 -16
24 -11 0 -22 -6 -25 -12 -3 -10 -9 -10 -27 0 -20 12 -25 11 -49 -12 -14 -13
-38 -29 -53 -35 -31 -12 -36 -28 -13 -37 23 -9 18 -32 -7 -36 -17 -2 -22 -9
-21 -26 3 -20 0 -21 -18 -12 -15 9 -24 8 -35 -1 -16 -13 -19 -39 -4 -39 10 0
34 -39 27 -46 -8 -9 -37 8 -37 22 0 17 -20 19 -20 2 -1 -17 -35 -58 -49 -58
-6 0 -11 6 -11 14 0 8 -7 16 -15 20 -13 5 -13 9 -3 26 11 18 10 23 -4 31 -22
12 -24 39 -3 39 8 0 15 -6 15 -13 0 -42 50 -57 64 -20 10 25 -6 38 -21 17 -14
-19 -15 -19 -29 0 -16 23 -19 76 -4 76 18 0 10 32 -9 37 -16 4 -17 8 -7 29 6
13 14 24 17 24 3 0 16 -18 28 -41 23 -40 23 -40 3 -46 -19 -5 -29 -53 -11 -53
5 0 9 6 9 14 0 27 21 28 42 1 18 -23 22 -25 30 -11 5 9 15 16 23 16 17 0 28
17 20 31 -5 7 -15 4 -32 -6 -30 -20 -55 -6 -34 19 9 11 8 17 -4 30 -9 9 -21
16 -26 16 -5 0 -9 9 -9 19 0 14 7 19 25 17 27 -1 33 -11 13 -19 -9 -3 -6 -12
9 -28 21 -21 23 -22 41 -6 10 9 25 17 33 18 8 1 4 4 -9 7 -21 6 -22 9 -8 27
13 19 15 19 33 2 27 -23 35 -22 58 13 20 30 57 40 70 20z m-185 -20 c0 -5 -4
-10 -10 -10 -5 0 -10 5 -10 10 0 6 5 10 10 10 6 0 10 -4 10 -10z m185 -70 c-3
-5 -17 -10 -31 -10 -13 0 -24 5 -24 10 0 6 14 10 31 10 17 0 28 -4 24 -10z
m-81 -6 c23 -9 20 -34 -4 -34 -13 0 -20 7 -20 20 0 22 1 23 24 14z m-1224 -44
c0 -5 -4 -10 -10 -10 -5 0 -10 5 -10 10 0 6 5 10 10 10 6 0 10 -4 10 -10z
m1309 -2 c18 -11 17 -13 -10 -42 -15 -17 -31 -27 -35 -24 -3 4 1 15 11 24 9 9
14 25 12 35 -6 22 -3 23 22 7z m-59 -13 c0 -8 -7 -15 -15 -15 -8 0 -15 7 -15
15 0 8 7 15 15 15 8 0 15 -7 15 -15z m-390 -44 c0 -5 -7 -14 -15 -21 -13 -10
-15 -9 -15 9 0 12 6 21 15 21 8 0 15 -4 15 -9z m-540 -53 c0 -10 -4 -18 -10
-18 -5 0 -10 15 -10 33 0 24 3 28 10 17 5 -8 10 -23 10 -32z m900 22 c0 -5 -2
-10 -4 -10 -3 0 -8 5 -11 10 -3 6 -1 10 4 10 6 0 11 -4 11 -10z m-16 -42 c17
-24 13 -39 -6 -20 -7 7 -20 12 -30 12 -10 0 -18 7 -18 15 0 23 37 18 54 -7z
m106 12 c0 -5 -4 -10 -10 -10 -5 0 -10 5 -10 10 0 6 5 10 10 10 6 0 10 -4 10
-10z m-50 -10 c0 -5 -4 -10 -10 -10 -5 0 -10 5 -10 10 0 6 5 10 10 10 6 0 10
-4 10 -10z m-182 -54 c-24 -18 -29 -44 -10 -55 15 -9 14 -10 -5 -11 -18 0 -23
6 -23 25 0 27 29 65 44 57 5 -3 2 -10 -6 -16z m-338 4 c0 -5 -7 -10 -15 -10
-8 0 -15 5 -15 10 0 6 7 10 15 10 8 0 15 -4 15 -10z m270 -39 c0 -18 -18 -21
-30 -6 -10 13 -9 15 9 15 11 0 21 -4 21 -9z m177 -27 c-3 -3 -12 -4 -19 -1 -8
3 -5 6 6 6 11 1 17 -2 13 -5z m-317 -79 c0 -8 -4 -17 -10 -20 -5 -3 -10 -2
-10 4 0 5 -3 17 -6 25 -5 12 -2 15 10 10 9 -3 16 -12 16 -19z m-710 -35 c0 -5
-5 -10 -11 -10 -5 0 -7 5 -4 10 3 6 8 10 11 10 2 0 4 -4 4 -10z m731 -21 c-8
-22 -10 -22 -16 -5 -5 11 -3 21 6 26 19 12 21 7 10 -21z m-41 -14 c0 -16 6
-25 15 -25 8 0 15 -4 15 -10 0 -15 -19 -12 -36 4 -16 17 -19 56 -4 56 6 0 10
-11 10 -25z m-494 -12 c-10 -10 -19 5 -10 18 6 11 8 11 12 0 2 -7 1 -15 -2
-18z m58 12 c3 -9 0 -15 -9 -15 -9 0 -12 6 -9 15 4 8 7 15 9 15 2 0 5 -7 9
-15z m2656 -20 c0 -8 -4 -15 -10 -15 -5 0 -10 7 -10 15 0 8 5 15 10 15 6 0 10
-7 10 -15z m-2943 -17 c-3 -8 -6 -5 -6 6 -1 11 2 17 5 13 3 -3 4 -12 1 -19z
m263 2 c0 -5 -4 -10 -10 -10 -5 0 -10 5 -10 10 0 6 5 10 10 10 6 0 10 -4 10
-10z m55 0 c-3 -5 -10 -10 -16 -10 -5 0 -9 5 -9 10 0 6 7 10 16 10 8 0 12 -4
9 -10z m-155 -101 c0 -5 -4 -8 -9 -4 -5 3 -12 1 -15 -4 -4 -5 -2 -12 4 -16 13
-8 13 -35 0 -35 -5 0 -10 9 -10 19 0 11 -5 21 -12 23 -6 2 -8 10 -4 16 9 15
46 16 46 1z m-80 -39 c0 -5 -7 -10 -15 -10 -8 0 -15 5 -15 10 0 6 7 10 15 10
8 0 15 -4 15 -10z m-3635 -79 c3 -5 1 -13 -5 -16 -15 -9 -43 3 -35 15 8 13 32
13 40 1z m3572 -69 c-12 -13 -31 -28 -42 -33 -19 -10 -19 -9 -2 4 17 14 17 16
-3 35 l-21 19 33 28 33 28 11 -29 c11 -25 10 -32 -9 -52z"/>
<path d="M4330 7570 c0 -5 5 -10 10 -10 6 0 10 5 10 10 0 6 -4 10 -10 10 -5 0
-10 -4 -10 -10z"/>
<path d="M4285 7550 c-3 -5 -1 -10 4 -10 6 0 11 5 11 10 0 6 -2 10 -4 10 -3 0
-8 -4 -11 -10z"/>
<path d="M4430 7400 c0 -5 5 -10 11 -10 5 0 7 5 4 10 -3 6 -8 10 -11 10 -2 0
-4 -4 -4 -10z"/>
<path d="M4150 7356 c0 -9 5 -16 10 -16 6 0 10 4 10 9 0 6 -4 13 -10 16 -5 3
-10 -1 -10 -9z"/>
<path d="M4610 7314 c0 -8 5 -12 10 -9 6 4 8 11 5 16 -9 14 -15 11 -15 -7z"/>
<path d="M2885 7280 c-3 -5 -2 -10 4 -10 5 0 13 5 16 10 3 6 2 10 -4 10 -5 0
-13 -4 -16 -10z"/>
<path d="M3085 7270 c3 -5 10 -10 16 -10 5 0 9 5 9 10 0 6 -7 10 -16 10 -8 0
-12 -4 -9 -10z"/>
<path d="M3146 7263 c-11 -11 -6 -23 9 -23 8 0 15 4 15 9 0 13 -16 22 -24 14z"/>
<path d="M2805 7197 c-13 -10 -15 -16 -6 -21 12 -8 41 10 41 25 0 13 -13 11
-35 -4z"/>
<path d="M3691 7191 c-10 -7 -10 -10 -1 -16 6 -4 16 -3 22 3 13 13 -4 23 -21
13z"/>
<path d="M4915 7181 c-3 -5 -1 -12 5 -16 12 -7 30 2 30 16 0 12 -27 12 -35 0z"/>
<path d="M5030 7104 c0 -9 5 -14 12 -12 18 6 21 28 4 28 -9 0 -16 -7 -16 -16z"/>
<path d="M2705 7080 c-7 -12 2 -30 16 -30 12 0 12 27 0 35 -5 3 -12 1 -16 -5z"/>
<path d="M5056 7031 c-7 -11 31 -22 50 -14 8 3 14 9 14 14 0 12 -57 12 -64 0z"/>
<path d="M5366 6961 c-4 -5 -2 -12 3 -15 5 -4 12 -2 15 3 4 5 2 12 -3 15 -5 4
-12 2 -15 -3z"/>
<path d="M5418 6953 c7 -3 16 -2 19 1 4 3 -2 6 -13 5 -11 0 -14 -3 -6 -6z"/>
<path d="M5441 6871 c-22 -14 -4 -33 20 -21 11 6 17 15 14 21 -8 11 -16 11
-34 0z"/>
<path d="M2596 6833 c-11 -11 -6 -23 9 -23 8 0 15 4 15 9 0 13 -16 22 -24 14z"/>
<path d="M4735 6670 c13 -21 -7 -31 -31 -15 -27 18 -48 11 -40 -12 5 -12 2
-13 -11 -7 -17 7 -154 7 -161 -1 -2 -2 1 -12 7 -23 10 -19 9 -20 -21 -11 -44
12 -48 12 -48 -6 0 -12 -8 -14 -40 -9 -36 6 -40 5 -40 -15 0 -14 -6 -21 -20
-21 -12 0 -29 -8 -39 -17 -15 -14 -17 -23 -9 -43 9 -24 10 -24 24 -6 7 11 16
17 19 14 3 -3 -1 -13 -11 -22 -10 -11 -15 -27 -12 -46 4 -24 1 -30 -13 -30
-10 0 -19 9 -21 22 -5 33 -25 33 -43 -1 -9 -19 -23 -31 -35 -31 -26 0 -26 -16
1 -23 21 -6 22 -34 1 -30 -17 4 -36 -65 -22 -82 9 -11 7 -18 -9 -34 -13 -13
-21 -34 -21 -53 -1 -36 -26 -73 -56 -81 -16 -4 -16 -5 -1 -6 11 -1 17 -9 17
-25 0 -13 5 -26 12 -28 6 -2 8 -10 4 -17 -6 -9 -12 -9 -26 4 -12 11 -20 13
-25 6 -6 -10 1 -15 18 -12 11 2 8 -27 -5 -49 -11 -17 -10 -22 2 -31 12 -8 9
-10 -12 -6 -33 5 -35 -2 -8 -36 13 -16 16 -28 10 -32 -5 -3 -10 -1 -10 4 0 6
-9 11 -20 11 -20 0 -26 -11 -13 -24 13 -12 11 -80 -3 -101 -7 -11 -14 -33 -16
-50 -2 -25 1 -31 20 -33 26 -4 20 -22 -8 -22 -27 0 -31 -12 -17 -49 11 -30 10
-34 -13 -51 -25 -20 -22 -24 14 -20 13 1 17 -3 13 -14 -4 -10 1 -20 14 -26 17
-10 18 -13 5 -31 -12 -18 -12 -24 2 -50 10 -16 20 -29 25 -29 4 0 7 -9 7 -19
0 -10 7 -21 15 -25 8 -3 15 -12 15 -19 0 -8 7 -20 15 -27 13 -10 12 -15 -3
-36 -18 -25 -46 -31 -58 -12 -4 6 0 16 9 23 26 19 20 38 -23 81 -31 30 -39 44
-35 62 5 20 3 21 -13 11 -16 -10 -19 -22 -17 -66 2 -48 -7 -71 -17 -41 -7 21
-38 0 -38 -26 0 -13 -7 -27 -17 -30 -31 -12 1 -28 33 -16 l29 10 -27 -24 c-18
-16 -25 -31 -22 -43 3 -11 -1 -27 -10 -35 -13 -13 -13 -18 0 -36 18 -27 10
-47 -27 -62 -16 -7 -29 -20 -29 -29 1 -13 3 -13 15 3 16 22 29 15 40 -21 6
-21 3 -23 -30 -23 l-37 0 23 -20 24 -19 -24 -1 c-19 0 -22 -4 -17 -20 21 -68
21 -64 -10 -56 -28 7 -28 7 -10 -13 10 -11 22 -19 25 -16 4 2 13 0 20 -5 16
-9 6 -30 -15 -30 -8 0 -14 -4 -14 -10 0 -5 -11 -10 -25 -10 -27 0 -32 -12 -12
-28 10 -9 19 -7 36 4 30 22 42 7 12 -15 -17 -13 -22 -23 -16 -39 3 -12 11 -22
16 -22 15 0 10 -27 -6 -34 -8 -3 -14 -15 -12 -27 1 -13 -6 -26 -18 -33 -11 -6
-22 -12 -25 -14 -3 -2 6 -12 20 -22 17 -13 20 -20 10 -20 -24 -1 -60 -36 -60
-59 0 -23 -7 -26 -30 -11 -9 5 -19 5 -27 -2 -21 -17 -15 -29 12 -22 42 10 30
-21 -15 -41 -22 -10 -40 -22 -40 -27 0 -4 -8 -8 -18 -8 -9 0 -23 -9 -30 -20
-7 -11 -21 -20 -31 -20 -22 0 -36 -24 -40 -67 0 -7 -6 -13 -12 -13 -7 0 -17
-8 -24 -17 -12 -16 -14 -16 -39 0 -16 11 -35 15 -50 11 -19 -4 -27 1 -44 29
-12 18 -37 42 -57 53 -19 10 -38 27 -41 37 -8 26 -37 1 -30 -27 3 -12 -2 -25
-12 -33 -14 -11 -15 -14 -3 -22 8 -5 15 -18 16 -29 0 -11 16 -37 34 -57 30
-35 34 -36 62 -25 16 7 29 17 29 22 0 6 6 6 14 -1 8 -6 27 -13 42 -15 57 -8
89 -20 102 -38 16 -22 91 -60 103 -52 5 3 9 -1 9 -10 0 -8 3 -16 8 -18 4 -1
15 -16 24 -33 19 -33 48 -46 48 -20 0 25 -19 55 -35 55 -8 0 -15 4 -15 9 0 15
52 2 65 -16 15 -20 57 -11 85 17 22 22 44 27 37 8 -9 -25 12 -49 38 -42 15 4
25 2 25 -5 0 -6 7 -11 16 -11 8 0 12 4 9 10 -3 6 -2 10 3 10 15 0 25 -52 11
-60 -8 -6 -8 -9 2 -13 11 -4 10 -9 -5 -21 -23 -19 -11 -20 33 -5 40 14 62 0
41 -26 -8 -9 -9 -19 -4 -24 14 -13 74 -22 74 -11 0 14 47 13 56 -1 3 -6 16 -8
27 -5 12 3 27 0 34 -6 10 -8 13 -6 13 6 0 19 13 20 41 3 17 -10 22 -9 30 6 6
10 22 17 38 17 16 0 31 7 35 15 6 17 42 20 52 4 4 -8 9 -7 15 2 14 23 10 36
-13 43 l-23 7 24 10 c14 5 31 7 38 5 8 -3 16 7 21 27 11 42 36 42 40 0 4 -38
16 -42 32 -13 15 28 3 60 -21 60 -20 0 -20 0 1 27 14 18 20 38 18 61 -1 20 3
36 11 41 19 12 4 93 -30 163 -5 10 -5 20 1 23 16 10 12 35 -4 29 -18 -7 -31
18 -40 74 -5 33 -3 42 8 42 8 0 17 -6 19 -12 3 -7 6 2 6 20 1 34 -13 43 -23
16 -10 -27 -37 3 -30 32 4 13 1 31 -6 39 -7 8 -12 31 -12 52 0 20 -4 47 -9 60
-9 25 0 30 19 11 9 -9 12 -7 12 8 0 12 -11 26 -25 34 -14 7 -25 19 -25 26 0 7
-7 17 -16 22 -10 6 -14 14 -9 22 6 9 9 9 16 -1 4 -7 11 -10 15 -6 4 4 0 15 -9
25 -10 11 -14 26 -10 40 3 13 1 22 -6 22 -6 0 -11 6 -11 13 0 6 -15 37 -32 67
-18 30 -33 61 -34 69 -2 8 -10 18 -18 23 -9 5 -16 16 -16 23 0 8 -9 15 -19 15
-30 0 -91 40 -91 59 0 31 13 32 38 4 17 -21 25 -24 29 -14 3 7 14 22 24 32 11
11 19 26 19 34 0 8 7 15 15 15 17 0 20 26 4 36 -6 3 -14 1 -18 -5 -5 -8 -13
-6 -25 8 -17 19 -17 20 4 31 20 11 20 13 6 29 -9 10 -14 25 -11 33 3 8 -1 21
-10 28 -8 7 -15 18 -15 25 0 7 -7 18 -15 25 -18 15 -10 31 13 24 16 -5 16 -5
0 9 -10 8 -18 23 -18 35 0 11 -6 22 -12 25 -10 3 -10 7 -1 18 6 8 11 16 11 19
-3 21 15 100 23 100 5 0 9 9 9 20 0 12 7 32 16 45 9 14 14 31 11 39 -6 16 16
40 26 29 4 -3 7 -26 7 -50 0 -57 13 -55 26 4 10 43 9 49 -7 61 -15 11 -18 25
-16 86 2 59 4 70 14 57 7 -9 13 -24 13 -33 0 -9 4 -19 9 -23 19 -11 22 17 6
65 -12 36 -14 54 -6 69 6 11 11 44 11 75 0 57 7 86 20 86 5 0 10 -15 12 -32
l4 -33 12 28 c7 16 9 34 5 40 -4 7 -6 23 -4 37 2 14 4 34 5 45 1 13 8 20 21
20 15 0 19 -6 18 -22 -2 -16 2 -21 12 -17 8 4 15 13 15 21 0 8 13 19 30 24 16
6 32 19 35 30 5 15 16 19 55 19 27 0 52 5 55 10 3 6 15 10 25 10 11 0 34 9 52
19 17 11 35 18 40 15 5 -3 31 0 58 7 l48 12 0 45 c0 48 24 80 30 40 2 -12 -1
-24 -7 -26 -6 -2 -11 -10 -11 -19 0 -10 6 -12 23 -8 12 4 26 11 32 16 5 5 19
9 32 9 13 0 23 5 23 10 0 6 1 13 3 17 1 3 -16 11 -38 18 -37 10 -38 12 -17 19
19 6 22 12 17 37 -4 18 -3 29 4 29 6 0 11 -9 11 -20 0 -11 5 -20 10 -20 17 0
22 27 10 49 -8 16 -17 20 -35 15 -15 -4 -25 -2 -25 5 0 6 -7 11 -16 11 -10 0
-14 -6 -11 -15 10 -25 -13 -28 -34 -3 -14 16 -22 19 -25 11 -7 -15 -34 -17
-34 -3 0 6 -4 10 -10 10 -5 0 -9 -3 -9 -7 3 -21 -4 -22 -37 -8 -43 18 -47 18
-39 5z m145 -70 c0 -5 -4 -10 -10 -10 -5 0 -10 5 -10 10 0 6 5 10 10 10 6 0
10 -4 10 -10z m-530 -360 c0 -5 -2 -10 -4 -10 -3 0 -8 5 -11 10 -3 6 -1 10 4
10 6 0 11 -4 11 -10z m-229 -913 c-13 -13 -26 -3 -16 12 3 6 11 8 17 5 6 -4 6
-10 -1 -17z m119 -23 c0 -16 -16 -19 -25 -4 -8 13 4 32 16 25 5 -4 9 -13 9
-21z m-190 -18 c0 -3 -4 -8 -10 -11 -5 -3 -10 -1 -10 4 0 6 5 11 10 11 6 0 10
-2 10 -4z m143 -32 c11 -14 16 -28 13 -32 -12 -11 -41 14 -42 37 -2 28 7 26
29 -5z m-63 -39 c0 -3 -9 -14 -20 -25 -11 -11 -22 -20 -25 -20 -9 0 -5 21 8
35 11 14 37 20 37 10z m40 -50 c0 -14 1 -28 3 -32 1 -5 -12 -9 -30 -10 -35 -1
-54 24 -25 34 9 4 21 12 25 20 13 21 27 15 27 -12z m-230 -45 c0 -5 12 -10 28
-10 25 -1 26 -2 8 -15 -14 -11 -22 -11 -37 -2 -20 12 -26 37 -9 37 6 0 10 -4
10 -10z m120 -50 c12 -7 12 -12 2 -22 -9 -9 -12 -9 -12 4 0 9 -8 19 -17 21
-13 3 -14 5 -3 6 8 0 22 -4 30 -9z m128 -8 c2 -7 -3 -12 -12 -12 -9 0 -16 7
-16 16 0 17 22 14 28 -4z m112 3 c0 -8 -7 -15 -15 -15 -8 0 -15 7 -15 15 0 8
7 15 15 15 8 0 15 -7 15 -15z m-320 -5 c0 -5 -7 -10 -15 -10 -8 0 -15 5 -15
10 0 6 7 10 15 10 8 0 15 -4 15 -10z m-32 -40 c7 -11 10 -20 6 -20 -7 0 -34
27 -34 34 0 13 16 5 28 -14z m-38 -97 c-1 -18 -28 -44 -35 -33 -4 6 -1 17 5
25 13 16 30 20 30 8z m260 -306 c0 -5 -4 -5 -10 -2 -5 3 -10 14 -10 23 0 15 2
15 10 2 5 -8 10 -19 10 -23z m-30 -21 c0 -11 -19 -15 -25 -6 -3 5 1 10 9 10 9
0 16 -2 16 -4z m165 -414 c0 -18 -20 -15 -23 4 -3 10 1 15 10 12 7 -3 13 -10
13 -16z m-305 -228 c0 -8 -4 -12 -10 -9 -5 3 -10 10 -10 16 0 5 5 9 10 9 6 0
10 -7 10 -16z m240 -44 c0 -5 -4 -10 -10 -10 -5 0 -10 5 -10 10 0 6 5 10 10
10 6 0 10 -4 10 -10z m120 1 c0 -14 -18 -23 -30 -16 -6 4 -8 11 -5 16 8 12 35
12 35 0z m-260 -16 c0 -9 -9 -15 -22 -15 -22 1 -23 1 -4 15 25 19 26 19 26 0z
m75 -5 c3 -5 -1 -10 -10 -10 -9 0 -13 5 -10 10 3 6 8 10 10 10 2 0 7 -4 10
-10z"/>
<path d="M5040 6673 c0 -5 4 -15 10 -23 11 -18 25 -7 17 15 -6 15 -27 21 -27
8z"/>
<path d="M5085 6660 c-3 -5 -2 -10 4 -10 5 0 13 5 16 10 3 6 2 10 -4 10 -5 0
-13 -4 -16 -10z"/>
<path d="M5187 6663 c-11 -3 -16 -10 -13 -20 3 -8 6 -20 6 -28 0 -7 9 -15 20
-18 21 -5 27 7 9 19 -6 3 -8 17 -5 30 4 13 5 23 4 23 -2 -1 -11 -3 -21 -6z"/>
<path d="M5120 6636 c0 -9 7 -16 16 -16 9 0 14 5 12 12 -6 18 -28 21 -28 4z"/>
<path d="M4410 6620 c0 -5 4 -10 9 -10 6 0 13 5 16 10 3 6 -1 10 -9 10 -9 0
-16 -4 -16 -10z"/>
<path d="M4291 6604 c0 -11 3 -14 6 -6 3 7 2 16 -1 19 -3 4 -6 -2 -5 -13z"/>
<path d="M5070 6614 c0 -17 18 -36 30 -32 7 2 4 10 -9 22 -12 11 -21 15 -21
10z"/>
<path d="M5130 6590 c0 -5 9 -10 20 -10 11 0 20 5 20 10 0 6 -9 10 -20 10 -11
0 -20 -4 -20 -10z"/>
<path d="M5290 6565 c0 -8 6 -15 14 -15 22 0 28 17 10 24 -22 9 -24 8 -24 -9z"/>
<path d="M3074 6557 c-6 -16 -16 -18 -63 -16 -108 4 -141 0 -135 -16 5 -11 2
-13 -10 -9 -9 3 -16 10 -16 15 0 25 -40 -1 -53 -34 -10 -27 -27 -11 -27 26
l-1 32 -14 -26 c-17 -31 -9 -99 11 -105 8 -2 22 -7 32 -11 9 -3 23 -7 30 -9 7
-1 23 -9 35 -17 27 -17 124 -35 236 -42 67 -5 87 -3 101 10 15 14 18 14 30 0
19 -23 49 -20 43 4 -5 19 -41 58 -49 54 -2 -2 -4 0 -5 5 0 4 6 11 14 16 22 14
47 -10 47 -45 0 -16 5 -29 10 -29 6 0 10 -6 10 -12 0 -7 12 -22 27 -32 21 -15
29 -17 44 -8 26 17 31 15 24 -8 -8 -24 3 -25 41 -5 34 17 47 2 18 -20 -18 -13
-17 -14 9 -15 15 0 27 -4 27 -10 0 -5 5 -10 11 -10 8 0 8 4 0 14 -8 10 -9 16
-1 21 16 10 12 35 -6 35 -11 0 -14 5 -10 16 3 9 6 23 6 32 0 24 18 2 22 -27 1
-14 8 -26 13 -28 16 -5 16 74 0 87 -7 6 -11 20 -8 30 4 15 0 20 -16 20 -11 0
-21 -6 -22 -12 0 -7 -4 -3 -9 10 -12 28 -45 31 -37 2 3 -13 -3 -24 -18 -34
-30 -19 -39 -10 -14 15 10 10 19 28 19 38 0 11 5 23 11 27 18 11 -12 24 -32
13 -11 -6 -20 -5 -24 1 -3 5 -17 10 -29 10 -13 0 -34 11 -48 24 -22 22 -32 25
-101 23 -62 -1 -77 -4 -77 -17 0 -10 -6 -7 -20 10 -17 23 -19 23 -26 7z m226
-83 c0 -13 -4 -24 -10 -24 -13 0 -28 32 -23 47 7 20 33 2 33 -23z m-460 6 c0
-5 -4 -10 -10 -10 -5 0 -10 -7 -10 -16 0 -9 -5 -14 -12 -12 -18 6 -21 28 -4
28 9 0 16 5 16 10 0 6 5 10 10 10 6 0 10 -4 10 -10z m507 -6 c-3 -3 -12 -4
-19 -1 -8 3 -5 6 6 6 11 1 17 -2 13 -5z m14 -47 c-16 -16 -26 0 -10 19 9 11
15 12 17 4 2 -6 -1 -17 -7 -23z m79 -86 c0 -6 -4 -13 -10 -16 -5 -3 -10 1 -10
9 0 9 5 16 10 16 6 0 10 -4 10 -9z"/>
<path d="M5035 6540 c3 -5 13 -10 21 -10 8 0 12 5 9 10 -3 6 -13 10 -21 10 -8
0 -12 -4 -9 -10z"/>
<path d="M5130 6540 c0 -5 5 -10 11 -10 5 0 7 5 4 10 -3 6 -8 10 -11 10 -2 0
-4 -4 -4 -10z"/>
<path d="M5230 6540 c0 -5 5 -10 10 -10 6 0 10 5 10 10 0 6 -4 10 -10 10 -5 0
-10 -4 -10 -10z"/>
<path d="M4200 6518 c0 -18 18 -34 28 -24 3 4 -2 14 -11 23 -16 16 -17 16 -17
1z"/>
<path d="M3465 6510 c-3 -5 -2 -10 4 -10 5 0 13 5 16 10 3 6 2 10 -4 10 -5 0
-13 -4 -16 -10z"/>
<path d="M5020 6500 c0 -5 5 -10 10 -10 6 0 10 5 10 10 0 6 -4 10 -10 10 -5 0
-10 -4 -10 -10z"/>
<path d="M5130 6500 c0 -5 7 -10 15 -10 8 0 15 5 15 10 0 6 -7 10 -15 10 -8 0
-15 -4 -15 -10z"/>
<path d="M5385 6469 c-4 -6 2 -13 14 -16 11 -3 19 -8 17 -12 -3 -4 11 -5 30
-3 19 2 34 9 34 14 0 5 -13 7 -30 3 -23 -5 -30 -3 -30 9 0 18 -25 22 -35 5z"/>
<path d="M2692 6444 c3 -26 31 -54 43 -43 7 8 -27 69 -38 69 -5 0 -7 -12 -5
-26z"/>
<path d="M5342 6458 c5 -15 28 -23 28 -10 0 5 -7 13 -16 16 -10 4 -14 1 -12
-6z"/>
<path d="M2625 6450 c3 -5 11 -10 16 -10 6 0 7 5 4 10 -3 6 -11 10 -16 10 -6
0 -7 -4 -4 -10z"/>
<path d="M2570 6430 c0 -5 5 -10 10 -10 6 0 10 5 10 10 0 6 -4 10 -10 10 -5 0
-10 -4 -10 -10z"/>
<path d="M5290 6430 c0 -5 5 -10 10 -10 6 0 10 5 10 10 0 6 -4 10 -10 10 -5 0
-10 -4 -10 -10z"/>
<path d="M2670 6390 c0 -5 5 -10 11 -10 5 0 7 5 4 10 -3 6 -8 10 -11 10 -2 0
-4 -4 -4 -10z"/>
<path d="M2645 6360 c-3 -5 -1 -10 4 -10 6 0 11 5 11 10 0 6 -2 10 -4 10 -3 0
-8 -4 -11 -10z"/>
<path d="M5540 6310 c0 -5 7 -10 15 -10 8 0 15 5 15 10 0 6 -7 10 -15 10 -8 0
-15 -4 -15 -10z"/>
<path d="M3530 6270 c0 -5 5 -10 11 -10 5 0 7 5 4 10 -3 6 -8 10 -11 10 -2 0
-4 -4 -4 -10z"/>
<path d="M4130 6239 c0 -5 5 -7 10 -4 6 3 10 8 10 11 0 2 -4 4 -10 4 -5 0 -10
-5 -10 -11z"/>
<path d="M3515 6210 c3 -5 8 -10 11 -10 2 0 4 5 4 10 0 6 -5 10 -11 10 -5 0
-7 -4 -4 -10z"/>
<path d="M5130 6176 c0 -9 40 -13 46 -5 3 5 -6 9 -20 9 -14 0 -26 -2 -26 -4z"/>
<path d="M4700 6145 c0 -8 7 -15 15 -15 8 0 15 7 15 15 0 8 -7 15 -15 15 -8 0
-15 -7 -15 -15z"/>
<path d="M2440 6070 c-8 -5 -11 -12 -8 -16 10 -9 38 3 38 16 0 12 -10 13 -30
0z"/>
<path d="M3070 6073 c-47 -9 -44 -22 4 -21 28 0 45 5 43 11 -4 13 -15 15 -47
10z"/>
<path d="M3146 6051 c-8 -13 24 -23 38 -12 6 5 20 11 31 14 11 2 1 5 -22 6
-23 0 -44 -3 -47 -8z"/>
<path d="M2685 6030 c4 -6 11 -8 16 -5 14 9 11 15 -7 15 -8 0 -12 -5 -9 -10z"/>
<path d="M3210 6020 c0 -5 5 -10 10 -10 6 0 10 5 10 10 0 6 -4 10 -10 10 -5 0
-10 -4 -10 -10z"/>
<path d="M2642 6003 c4 -26 -30 -93 -47 -93 -19 0 -19 -26 -1 -33 19 -8 56 34
56 64 0 13 4 30 9 38 10 16 4 41 -11 41 -5 0 -8 -8 -6 -17z"/>
<path d="M3166 5984 c-4 -9 -4 -19 -1 -22 2 -3 7 3 11 12 4 9 4 19 1 22 -2 3
-7 -3 -11 -12z"/>
<path d="M3235 5977 c-4 -10 -5 -21 -1 -24 10 -10 18 4 13 24 -4 17 -4 17 -12
0z"/>
<path d="M3340 5970 c0 -13 5 -20 13 -17 6 2 12 10 12 17 0 7 -6 15 -12 18 -8
2 -13 -5 -13 -18z"/>
<path d="M2537 5937 c-27 -19 -44 -38 -42 -45 3 -8 -4 -26 -15 -42 -22 -30
-26 -65 -10 -75 18 -11 10 -35 -24 -70 l-34 -33 34 5 c31 5 34 3 34 -18 1 -23
1 -23 15 -5 19 24 49 14 40 -14 -4 -11 -2 -20 4 -20 17 0 61 23 61 32 0 20 22
5 31 -22 8 -21 17 -30 34 -30 19 0 24 7 29 40 3 22 4 51 0 64 -4 18 2 32 25
55 17 18 31 36 31 40 0 5 21 12 46 16 26 3 52 9 58 11 8 3 11 -20 12 -75 0
-73 3 -82 30 -114 40 -47 85 -77 117 -77 15 0 27 -6 27 -13 0 -14 76 -11 86 4
3 5 16 9 29 9 13 0 27 5 30 10 3 6 17 10 30 10 32 0 42 20 20 37 -15 10 -16
13 -4 13 24 0 56 42 63 83 9 47 31 58 54 26 19 -27 22 -39 8 -38 -12 1 -26
-22 -26 -42 0 -11 8 -16 24 -16 19 0 26 6 31 26 5 24 11 27 50 29 24 1 47 -3
50 -8 14 -23 23 -7 18 33 -7 49 -20 70 -40 62 -14 -5 -80 38 -96 62 -4 7 -14
10 -22 7 -8 -4 -18 1 -21 10 -3 9 -17 16 -31 16 -14 0 -38 10 -55 21 -27 20
-44 22 -128 16 -8 0 -49 3 -91 7 -52 5 -79 4 -84 -3 -3 -6 -24 -11 -47 -11
-22 0 -54 -6 -71 -13 -58 -25 -104 -37 -118 -32 -16 6 -79 -30 -79 -45 0 -5
-15 -10 -33 -10 -18 0 -38 -5 -44 -11 -17 -17 -37 -1 -22 17 8 10 22 13 42 8
27 -6 28 -4 22 17 -4 13 -14 28 -21 32 -22 13 -17 30 17 58 49 40 12 44 -44 6z
m373 -71 c0 -7 -6 -19 -14 -25 -11 -9 -12 -6 -8 14 5 26 22 35 22 11z m90 -6
c0 -5 11 -12 25 -16 29 -7 31 -16 8 -50 l-17 -26 -17 23 c-15 20 -19 21 -34 9
-14 -12 -18 -12 -26 1 -12 20 -11 43 3 57 14 14 58 16 58 2z m-500 -60 c0 -5
-4 -10 -10 -10 -5 0 -10 5 -10 10 0 6 5 10 10 10 6 0 10 -4 10 -10z m668 -139
c-24 -38 -39 -20 -17 21 7 13 14 17 21 10 6 -6 5 -17 -4 -31z"/>
<path d="M3320 5918 c0 -18 5 -28 15 -28 19 0 19 11 0 36 -14 18 -14 18 -15
-8z"/>
<path d="M3401 5864 c0 -11 3 -14 6 -6 3 7 2 16 -1 19 -3 4 -6 -2 -5 -13z"/>
<path d="M2416 5735 c-11 -8 -17 -18 -13 -21 3 -3 16 3 28 15 26 24 14 28 -15
6z"/>
<path d="M6000 5740 c0 -5 5 -10 11 -10 5 0 7 5 4 10 -3 6 -8 10 -11 10 -2 0
-4 -4 -4 -10z"/>
<path d="M4632 5728 c6 -18 28 -21 28 -4 0 9 -7 16 -16 16 -9 0 -14 -5 -12
-12z"/>
<path d="M5845 5710 c-10 -17 12 -37 25 -24 8 8 6 15 -4 23 -10 9 -16 9 -21 1z"/>
<path d="M3970 5650 c0 -5 5 -10 10 -10 6 0 10 5 10 10 0 6 -4 10 -10 10 -5 0
-10 -4 -10 -10z"/>
<path d="M4340 5651 c0 -6 5 -13 10 -16 6 -3 10 1 10 9 0 9 -4 16 -10 16 -5 0
-10 -4 -10 -9z"/>
<path d="M5128 5643 c7 -3 16 -2 19 1 4 3 -2 6 -13 5 -11 0 -14 -3 -6 -6z"/>
<path d="M6050 5630 c0 -5 5 -10 10 -10 6 0 10 5 10 10 0 6 -4 10 -10 10 -5 0
-10 -4 -10 -10z"/>
<path d="M3306 5621 c-4 -7 -5 -15 -2 -18 9 -9 19 4 14 18 -4 11 -6 11 -12 0z"/>
<path d="M2580 5602 c0 -13 39 -46 46 -40 8 9 -19 48 -33 48 -7 0 -13 -4 -13
-8z"/>
<path d="M2550 5580 c0 -5 5 -10 10 -10 6 0 10 5 10 10 0 6 -4 10 -10 10 -5 0
-10 -4 -10 -10z"/>
<path d="M6100 5529 c0 -11 5 -17 10 -14 6 3 10 13 10 21 0 8 -4 14 -10 14 -5
0 -10 -9 -10 -21z"/>
<path d="M2590 5526 c0 -8 5 -18 10 -21 6 -3 10 3 10 14 0 12 -4 21 -10 21 -5
0 -10 -6 -10 -14z"/>
<path d="M4337 5485 c-4 -8 -2 -17 3 -20 6 -4 10 3 10 14 0 25 -6 27 -13 6z"/>
<path d="M6101 5484 c0 -11 3 -14 6 -6 3 7 2 16 -1 19 -3 4 -6 -2 -5 -13z"/>
<path d="M3965 5460 c-3 -5 1 -10 9 -10 9 0 16 5 16 10 0 6 -4 10 -9 10 -6 0
-13 -4 -16 -10z"/>
<path d="M5212 5443 c-23 -11 -30 -19 -23 -26 8 -8 15 -7 23 1 7 7 25 12 41
12 18 0 27 4 25 13 -7 18 -29 19 -66 0z"/>
<path d="M6067 5424 c3 -7 9 -14 14 -14 14 0 10 17 -5 23 -10 4 -13 1 -9 -9z"/>
<path d="M3930 5390 c0 -5 5 -10 11 -10 5 0 7 5 4 10 -3 6 -8 10 -11 10 -2 0
-4 -4 -4 -10z"/>
<path d="M5985 5370 c3 -5 8 -10 11 -10 2 0 4 5 4 10 0 6 -5 10 -11 10 -5 0
-7 -4 -4 -10z"/>
<path d="M3911 5344 c0 -11 3 -14 6 -6 3 7 2 16 -1 19 -3 4 -6 -2 -5 -13z"/>
<path d="M6035 5350 c-3 -6 1 -13 10 -16 19 -8 30 0 20 15 -8 14 -22 14 -30 1z"/>
<path d="M4330 5320 c0 -5 5 -10 11 -10 5 0 7 5 4 10 -3 6 -8 10 -11 10 -2 0
-4 -4 -4 -10z"/>
<path d="M4310 5179 c0 -11 5 -17 10 -14 6 3 10 13 10 21 0 8 -4 14 -10 14 -5
0 -10 -9 -10 -21z"/>
<path d="M4326 5113 c8 -35 10 -37 23 -28 16 10 13 42 -5 49 -24 9 -25 8 -18
-21z"/>
<path d="M5881 5020 c-17 -10 -7 -40 14 -40 8 0 15 9 15 19 0 24 -12 32 -29
21z"/>
<path d="M5795 4860 c-4 -6 -3 -16 3 -22 6 -6 12 -6 17 2 4 6 3 16 -3 22 -6 6
-12 6 -17 -2z"/>
<path d="M3805 4810 c-3 -5 1 -10 9 -10 9 0 16 5 16 10 0 6 -4 10 -9 10 -6 0
-13 -4 -16 -10z"/>
<path d="M5700 4796 c0 -9 5 -16 10 -16 6 0 10 4 10 9 0 6 -4 13 -10 16 -5 3
-10 -1 -10 -9z"/>
<path d="M5750 4769 c0 -5 5 -7 10 -4 6 3 10 8 10 11 0 2 -4 4 -10 4 -5 0 -10
-5 -10 -11z"/>
<path d="M5641 4704 c0 -11 3 -14 6 -6 3 7 2 16 -1 19 -3 4 -6 -2 -5 -13z"/>
<path d="M5696 4601 c-4 -7 -5 -15 -2 -18 9 -9 19 4 14 18 -4 11 -6 11 -12 0z"/>
<path d="M3745 4530 c-3 -5 -1 -10 4 -10 6 0 11 5 11 10 0 6 -2 10 -4 10 -3 0
-8 -4 -11 -10z"/>
<path d="M5460 4530 c0 -5 5 -10 11 -10 5 0 7 5 4 10 -3 6 -8 10 -11 10 -2 0
-4 -4 -4 -10z"/>
<path d="M5565 4530 c-3 -5 1 -10 10 -10 9 0 13 5 10 10 -3 6 -8 10 -10 10 -2
0 -7 -4 -10 -10z"/>
<path d="M5663 4533 c-18 -6 -16 -23 2 -23 9 0 15 -9 15 -25 0 -16 -6 -25 -15
-25 -9 0 -15 -9 -15 -24 0 -31 20 -44 32 -22 9 16 11 16 28 1 32 -29 55 1 25
32 -9 8 -19 29 -22 45 -6 30 -29 49 -50 41z"/>
<path d="M5620 4500 c0 -5 5 -10 10 -10 6 0 10 5 10 10 0 6 -4 10 -10 10 -5 0
-10 -4 -10 -10z"/>
<path d="M5568 4483 c7 -3 16 -2 19 1 4 3 -2 6 -13 5 -11 0 -14 -3 -6 -6z"/>
<path d="M5495 4370 c-3 -5 1 -10 9 -10 9 0 16 5 16 10 0 6 -4 10 -9 10 -6 0
-13 -4 -16 -10z"/>
<path d="M5551 4377 c-2 -17 20 -47 30 -42 14 9 11 25 -5 25 -8 0 -17 6 -19
13 -3 6 -6 8 -6 4z"/>
<path d="M5560 4260 c0 -5 5 -10 10 -10 6 0 10 5 10 10 0 6 -4 10 -10 10 -5 0
-10 -4 -10 -10z"/>
<path d="M4611 4214 c0 -11 3 -14 6 -6 3 7 2 16 -1 19 -3 4 -6 -2 -5 -13z"/>
<path d="M5475 4210 c3 -5 13 -10 21 -10 8 0 12 5 9 10 -3 6 -13 10 -21 10 -8
0 -12 -4 -9 -10z"/>
<path d="M5545 4210 c-3 -5 -1 -10 4 -10 6 0 11 5 11 10 0 6 -2 10 -4 10 -3 0
-8 -4 -11 -10z"/>
<path d="M5500 4170 c0 -5 5 -10 10 -10 6 0 10 5 10 10 0 6 -4 10 -10 10 -5 0
-10 -4 -10 -10z"/>
<path d="M5626 4156 c19 -15 19 -15 -1 -30 -20 -15 -20 -15 3 -16 30 0 40 27
16 45 -11 8 -23 15 -28 15 -6 0 -1 -6 10 -14z"/>
<path d="M5566 4151 c-4 -5 -2 -12 3 -15 5 -4 12 -2 15 3 4 5 2 12 -3 15 -5 4
-12 2 -15 -3z"/>
<path d="M4590 4110 c0 -5 7 -10 15 -10 8 0 15 5 15 10 0 6 -7 10 -15 10 -8 0
-15 -4 -15 -10z"/>
<path d="M5480 4116 c0 -2 9 -6 20 -9 11 -3 20 -1 20 4 0 5 -9 9 -20 9 -11 0
-20 -2 -20 -4z"/>
<path d="M5545 4090 c28 -12 45 -12 45 0 0 6 -15 10 -32 9 -28 0 -30 -2 -13
-9z"/>
<path d="M5506 4072 c-4 -7 -3 -19 2 -28 12 -21 22 -5 12 20 -4 13 -9 16 -14
8z"/>
<path d="M5540 4030 c0 -19 11 -26 23 -14 8 8 -3 34 -14 34 -5 0 -9 -9 -9 -20z"/>
<path d="M3890 3981 c0 -5 7 -12 16 -15 22 -9 24 -8 24 9 0 8 -9 15 -20 15
-11 0 -20 -4 -20 -9z"/>
<path d="M5498 3983 c7 -3 16 -2 19 1 4 3 -2 6 -13 5 -11 0 -14 -3 -6 -6z"/>
<path d="M3645 3969 c-4 -6 -5 -13 -2 -16 7 -7 27 6 27 18 0 12 -17 12 -25 -2z"/>
<path d="M3685 3939 c-10 -15 3 -25 16 -12 7 7 7 13 1 17 -6 3 -14 1 -17 -5z"/>
<path d="M5498 3933 c7 -3 16 -2 19 1 4 3 -2 6 -13 5 -11 0 -14 -3 -6 -6z"/>
<path d="M5458 3913 c7 -3 16 -2 19 1 4 3 -2 6 -13 5 -11 0 -14 -3 -6 -6z"/>
<path d="M5410 3890 c0 -5 5 -10 10 -10 6 0 10 5 10 10 0 6 -4 10 -10 10 -5 0
-10 -4 -10 -10z"/>
<path d="M3645 3860 c3 -5 8 -10 11 -10 2 0 4 5 4 10 0 6 -5 10 -11 10 -5 0
-7 -4 -4 -10z"/>
<path d="M4136 3852 c-3 -4 4 -16 15 -25 22 -19 25 -10 5 16 -8 10 -17 14 -20
9z"/>
<path d="M5440 3841 c0 -24 18 -37 32 -23 8 8 7 16 -2 27 -17 21 -30 19 -30
-4z"/>
<path d="M4470 3834 c0 -8 5 -12 10 -9 6 4 8 11 5 16 -9 14 -15 11 -15 -7z"/>
<path d="M5427 3753 c-9 -9 12 -33 29 -33 12 0 12 4 2 20 -14 21 -21 24 -31
13z"/>
<path d="M4416 3712 c-3 -6 -1 -14 5 -17 15 -10 25 3 12 16 -7 7 -13 7 -17 1z"/>
<path d="M5437 3672 c-10 -10 -14 -22 -10 -25 11 -12 23 -8 23 8 0 8 9 15 20
15 11 0 20 5 20 10 0 17 -36 11 -53 -8z"/>
<path d="M3885 3643 c-11 -3 -24 -9 -29 -14 -6 -5 -20 -9 -32 -9 -12 0 -27 -7
-34 -15 -7 -8 -19 -15 -27 -15 -8 0 -23 -5 -34 -11 -16 -8 -18 -13 -8 -25 9
-11 7 -14 -10 -14 -29 0 -27 -24 4 -40 14 -7 25 -18 25 -23 0 -12 -52 1 -63
16 -6 8 -7 6 -3 -5 4 -13 0 -18 -14 -18 -10 0 -21 8 -23 18 -4 15 -5 15 -6 -2
-1 -14 -6 -17 -23 -11 -13 4 -41 10 -63 14 -30 5 -39 11 -37 24 2 10 -3 17
-13 17 -8 0 -15 8 -15 18 -1 16 -1 16 -11 0 -5 -10 -19 -22 -29 -28 -17 -9
-19 -8 -13 7 3 10 13 24 21 31 12 9 13 15 4 24 -9 9 -16 8 -29 -3 -19 -16 -53
-15 -53 2 0 5 -7 9 -15 9 -8 0 -15 -6 -15 -14 0 -9 -7 -12 -20 -9 -15 4 -20 0
-20 -16 0 -11 -5 -21 -12 -21 -9 0 -9 -3 0 -12 14 -14 16 -58 3 -58 -6 0 -13
5 -16 10 -3 6 -13 10 -21 10 -8 0 -14 -4 -14 -10 0 -5 -9 -19 -20 -30 -23 -23
-26 -42 -6 -34 8 3 16 14 19 25 5 18 8 19 26 7 12 -7 21 -16 21 -20 0 -12 -62
-38 -92 -38 -24 0 -28 -4 -28 -30 0 -31 16 -41 26 -15 4 10 15 12 35 8 20 -4
35 0 49 12 10 9 23 14 29 11 6 -4 28 -3 48 3 90 22 90 22 96 0 3 -12 10 -18
16 -14 6 3 9 11 5 16 -3 6 0 9 7 8 8 -1 22 1 32 6 10 4 23 2 32 -5 12 -10 18
-10 30 0 12 10 21 10 40 2 14 -6 31 -9 39 -6 8 3 23 1 34 -5 13 -7 22 -7 29 0
7 7 15 5 26 -5 17 -18 47 -21 47 -6 0 6 14 10 31 10 26 0 30 3 26 19 -2 11 3
25 14 35 38 32 53 10 23 -32 -8 -12 -12 -27 -9 -32 10 -16 35 -12 35 6 0 11 6
13 19 9 11 -3 22 -2 24 2 7 10 245 9 269 -2 9 -4 22 -4 28 0 6 4 18 -1 25 -11
10 -14 17 -16 22 -7 5 6 25 14 45 18 34 6 38 5 44 -19 7 -31 0 -63 -20 -91
-14 -19 -15 -19 -22 -2 -4 12 0 22 11 31 21 15 16 49 -7 54 -12 2 -18 -6 -21
-30 l-4 -33 -1 33 c-2 39 -17 42 -30 5 -9 -28 -9 -28 -16 -5 -4 13 -13 21 -19
19 -19 -6 -20 -46 -3 -73 16 -23 15 -24 -4 -24 -15 0 -22 8 -27 31 -6 30 -6
30 -25 11 -19 -18 -19 -21 -4 -50 14 -27 20 -31 46 -25 36 7 41 -12 5 -21 -18
-5 -25 -13 -25 -31 0 -31 -20 -33 -21 -2 -1 31 -32 81 -53 85 -15 3 -16 -2
-10 -32 5 -29 3 -36 -9 -36 -9 0 -17 10 -19 23 -2 14 -11 23 -25 25 -17 2 -23
-3 -28 -27 -4 -21 -13 -31 -26 -31 -16 0 -18 -5 -12 -32 4 -23 2 -30 -5 -23
-5 6 -12 19 -14 30 -2 13 -12 21 -28 23 -23 2 -24 2 -7 -11 16 -14 16 -15 -7
-31 -30 -19 -50 -20 -76 -4 -25 16 -39 2 -15 -16 18 -13 18 -14 -3 -25 -27
-15 -32 -14 -32 4 0 9 -7 18 -15 21 -8 4 -15 12 -15 20 0 16 -26 19 -35 5 -3
-6 3 -15 12 -20 17 -10 17 -12 1 -25 -12 -8 -18 -27 -19 -52 0 -34 -2 -36 -9
-16 -13 30 -47 66 -53 55 -7 -11 4 -29 20 -34 8 -2 9 -9 4 -17 -7 -12 -12 -12
-30 -1 -17 11 -25 12 -42 1 -15 -10 -24 -10 -34 -2 -8 7 -23 9 -34 5 -10 -3
-22 -1 -26 5 -10 17 -25 11 -25 -10 0 -14 7 -20 21 -20 18 0 20 -4 14 -30 -4
-19 -3 -30 4 -30 6 0 11 -9 11 -20 0 -11 5 -20 10 -20 6 0 16 -11 22 -25 9
-20 16 -23 36 -18 22 5 24 3 19 -17 -5 -18 -2 -21 14 -17 23 6 50 -18 43 -38
-4 -9 0 -15 7 -16 191 -10 221 -8 226 12 5 19 7 19 30 3 15 -9 39 -14 59 -12
24 3 34 0 34 -9 0 -11 6 -10 30 2 34 18 73 19 101 4 16 -8 25 -7 38 5 20 18
51 21 51 6 0 -5 5 -10 10 -10 6 0 10 9 10 20 0 10 8 24 18 29 9 6 11 11 5 11
-7 0 -13 5 -13 10 0 13 47 13 55 0 4 -6 11 -7 17 -4 7 4 6 9 -2 14 -7 4 -10
16 -8 26 3 17 5 16 26 -6 17 -18 25 -21 34 -12 9 9 8 16 -4 29 -8 10 -17 30
-20 44 -4 21 -1 25 13 22 9 -3 20 -16 23 -29 10 -39 28 -29 20 12 -5 27 -4 35
5 30 18 -11 13 6 -6 19 -17 13 -17 14 0 32 9 11 17 25 17 32 0 8 7 10 20 6 11
-4 20 -2 20 4 0 6 9 11 21 11 12 0 23 8 26 20 3 11 10 20 15 20 6 0 7 13 3 31
l-7 32 22 -21 c27 -25 60 -14 60 20 0 17 -2 18 -15 8 -12 -10 -18 -8 -35 11
-22 27 -25 45 -10 54 6 3 10 11 10 17 0 6 -6 5 -16 -3 -14 -12 -15 -8 -9 37 4
27 14 53 21 57 8 4 14 15 14 24 0 14 3 14 12 5 10 -10 10 -17 0 -32 -14 -23
-16 -50 -3 -50 5 0 12 -12 16 -27 6 -27 7 -27 21 -8 13 18 12 21 -8 37 l-23
18 24 19 c23 18 23 19 7 51 -9 18 -16 44 -16 57 0 12 -4 23 -10 23 -5 0 -10
11 -10 25 0 14 -6 25 -13 25 -8 0 -22 9 -32 20 -10 11 -24 20 -30 20 -7 0 -15
7 -19 15 -5 14 -9 14 -42 0 -44 -18 -44 -18 -44 -1 0 8 -7 16 -15 20 -10 3
-15 -1 -15 -13 0 -11 6 -22 13 -24 7 -3 5 -6 -6 -6 -9 -1 -26 5 -37 12 -14 8
-23 9 -28 2 -10 -15 -52 -33 -91 -39 -39 -7 -68 18 -49 41 8 10 3 13 -20 13
-17 0 -34 5 -38 11 -3 6 -19 9 -35 5 -15 -3 -31 -1 -34 4 -3 6 -13 10 -21 10
-9 0 -23 8 -32 17 -16 16 -17 16 -20 0 -2 -9 -8 -17 -13 -17 -6 0 -7 9 -4 20
6 17 2 20 -29 20 -19 0 -38 -4 -41 -10 -9 -15 -25 -12 -25 5 0 16 -2 16 -35 8z
m23 -56 c2 -15 10 -27 18 -27 8 0 14 -7 14 -15 0 -8 -4 -15 -9 -15 -12 0 -23
16 -37 58 -9 25 -9 32 0 29 6 -2 12 -16 14 -30z m-74 -43 c23 -23 20 -26 -21
-18 -45 8 -47 9 -38 23 9 16 41 13 59 -5z m293 0 c-3 -3 -12 -4 -19 -1 -8 3
-5 6 6 6 11 1 17 -2 13 -5z m-50 -30 c-9 -9 -28 6 -21 18 4 6 10 6 17 -1 6 -6
8 -13 4 -17z m-317 6 c0 -5 -2 -10 -4 -10 -3 0 -8 5 -11 10 -3 6 -1 10 4 10 6
0 11 -4 11 -10z m430 0 c0 -5 -2 -10 -4 -10 -3 0 -8 5 -11 10 -3 6 -1 10 4 10
6 0 11 -4 11 -10z m-840 -20 c0 -5 -4 -10 -10 -10 -5 0 -10 5 -10 10 0 6 5 10
10 10 6 0 10 -4 10 -10z m440 -9 c0 -12 -20 -25 -27 -18 -7 7 6 27 18 27 5 0
9 -4 9 -9z m-310 -15 c0 -3 -4 -8 -10 -11 -5 -3 -10 -1 -10 4 0 6 5 11 10 11
6 0 10 -2 10 -4z m220 -46 c0 -5 -2 -10 -4 -10 -3 0 -8 5 -11 10 -3 6 -1 10 4
10 6 0 11 -4 11 -10z m235 0 c3 -5 1 -10 -4 -10 -6 0 -11 5 -11 10 0 6 2 10 4
10 3 0 8 -4 11 -10z m609 -55 c16 -24 15 -25 -3 -25 -21 0 -45 32 -34 44 11
11 20 6 37 -19z m-63 5 c6 0 7 -5 4 -10 -3 -6 1 -13 9 -16 8 -3 18 -14 21 -25
5 -15 12 -18 32 -13 l25 7 -18 -28 c-14 -21 -15 -30 -6 -33 6 -2 12 -15 12
-29 0 -21 -2 -24 -15 -13 -8 7 -15 19 -15 26 0 22 -17 16 -24 -8 l-7 -23 -9
22 c-5 12 -17 24 -28 27 -24 8 -67 66 -67 91 0 20 36 37 63 29 8 -2 18 -4 23
-4z m-181 -112 c0 -16 -3 -19 -11 -11 -6 6 -8 16 -5 22 11 17 16 13 16 -11z
m123 -6 c16 -17 14 -32 -4 -32 -3 0 -14 11 -23 25 -13 20 -14 25 -3 25 8 0 21
-8 30 -18z m-56 -44 c-3 -8 -6 -5 -6 6 -1 11 2 17 5 13 3 -3 4 -12 1 -19z
m-41 -26 c-10 -10 -29 15 -21 28 6 9 10 8 17 -4 6 -10 7 -20 4 -24z m-156 -32
c0 -11 -4 -20 -10 -20 -5 0 -10 2 -10 4 0 2 -3 11 -6 20 -4 11 -1 16 10 16 9
0 16 -8 16 -20z m-76 -69 c7 -11 -14 -20 -31 -13 -7 2 -13 8 -13 13 0 12 37
12 44 0z m393 -23 c-3 -8 -6 -5 -6 6 -1 11 2 17 5 13 3 -3 4 -12 1 -19z m-457
2 c0 -15 -27 -23 -47 -15 -17 7 -16 8 2 15 28 12 45 12 45 0z m-113 -6 c-3 -3
-12 -4 -19 -1 -8 3 -5 6 6 6 11 1 17 -2 13 -5z m-97 -54 c0 -5 -5 -10 -11 -10
-5 0 -7 5 -4 10 3 6 8 10 11 10 2 0 4 -4 4 -10z m568 -108 c2 -7 -3 -12 -12
-12 -9 0 -16 7 -16 16 0 17 22 14 28 -4z m-103 -41 c3 -5 1 -12 -5 -16 -5 -3
-10 1 -10 9 0 18 6 21 15 7z"/>
<path d="M4482 3289 c2 -7 10 -15 17 -17 8 -3 12 1 9 9 -2 7 -10 15 -17 17 -8
3 -12 -1 -9 -9z"/>
<path d="M5380 3630 c0 -5 4 -10 9 -10 6 0 13 5 16 10 3 6 -1 10 -9 10 -9 0
-16 -4 -16 -10z"/>
<path d="M5360 3595 c0 -10 7 -15 18 -13 21 4 19 22 -2 26 -10 2 -16 -3 -16
-13z"/>
<path d="M3490 3590 c0 -5 5 -10 10 -10 6 0 10 5 10 10 0 6 -4 10 -10 10 -5 0
-10 -4 -10 -10z"/>
<path d="M4300 3570 c0 -5 7 -10 15 -10 8 0 15 5 15 10 0 6 -7 10 -15 10 -8 0
-15 -4 -15 -10z"/>
<path d="M4260 3556 c0 -24 17 -28 23 -6 3 13 0 20 -9 20 -8 0 -14 -6 -14 -14z"/>
<path d="M3620 3546 c0 -17 14 -19 45 -6 16 7 17 9 3 9 -9 1 -23 4 -32 7 -11
4 -16 1 -16 -10z"/>
<path d="M3535 3540 c-3 -5 -1 -10 4 -10 6 0 11 5 11 10 0 6 -2 10 -4 10 -3 0
-8 -4 -11 -10z"/>
<path d="M5268 3403 c7 -3 16 -2 19 1 4 3 -2 6 -13 5 -11 0 -14 -3 -6 -6z"/>
<path d="M3115 3371 c-7 -12 12 -24 25 -16 11 7 4 25 -10 25 -5 0 -11 -4 -15
-9z"/>
<path d="M3077 3364 c-9 -9 4 -35 14 -28 5 3 9 12 9 20 0 14 -12 19 -23 8z"/>
<path d="M4124 3356 c-5 -14 33 -62 42 -54 6 7 -20 68 -29 68 -4 0 -10 -6 -13
-14z"/>
<path d="M3818 3346 c-10 -7 -18 -21 -18 -30 0 -16 2 -16 25 1 13 10 25 24 25
31 0 15 -10 15 -32 -2z"/>
<path d="M3710 3341 c0 -6 5 -13 10 -16 6 -3 10 1 10 9 0 9 -4 16 -10 16 -5 0
-10 -4 -10 -9z"/>
<path d="M3380 3325 c12 -15 30 -12 30 6 0 5 -10 9 -21 9 -18 0 -19 -2 -9 -15z"/>
<path d="M3660 3324 c0 -9 5 -14 12 -12 18 6 21 28 4 28 -9 0 -16 -7 -16 -16z"/>
<path d="M3760 3320 c0 -5 5 -10 10 -10 6 0 10 5 10 10 0 6 -4 10 -10 10 -5 0
-10 -4 -10 -10z"/>
<path d="M3347 3303 c-12 -11 -8 -23 8 -23 8 0 15 7 15 15 0 16 -12 20 -23 8z"/>
<path d="M3720 3300 c0 -5 5 -10 10 -10 6 0 10 5 10 10 0 6 -4 10 -10 10 -5 0
-10 -4 -10 -10z"/>
<path d="M3917 3290 c-3 -11 -2 -20 3 -20 12 0 31 26 23 33 -11 12 -21 7 -26
-13z"/>
<path d="M3313 3273 c3 -26 37 -47 37 -24 0 6 -4 11 -10 11 -5 0 -10 9 -10 20
0 11 -5 20 -10 20 -6 0 -9 -12 -7 -27z"/>
<path d="M3784 3279 c-3 -6 -1 -16 5 -22 8 -8 11 -5 11 11 0 24 -5 28 -16 11z"/>
<path d="M3701 3264 c0 -11 3 -14 6 -6 3 7 2 16 -1 19 -3 4 -6 -2 -5 -13z"/>
<path d="M3700 3230 c0 -5 5 -10 11 -10 5 0 7 5 4 10 -3 6 -8 10 -11 10 -2 0
-4 -4 -4 -10z"/>
<path d="M3767 3233 c-4 -3 -7 -13 -7 -21 0 -12 3 -12 15 -2 8 7 15 16 15 21
0 11 -14 12 -23 2z"/>
<path d="M4680 3224 c0 -9 7 -14 17 -12 25 5 28 28 4 28 -12 0 -21 -6 -21 -16z"/>
<path d="M3380 3203 c0 -13 5 -23 10 -23 13 0 13 11 0 30 -8 12 -10 11 -10 -7z"/>
<path d="M4640 3211 c0 -10 19 -25 25 -20 1 2 -3 10 -11 17 -8 7 -14 8 -14 3z"/>
<path d="M3498 3173 c7 -3 16 -2 19 1 4 3 -2 6 -13 5 -11 0 -14 -3 -6 -6z"/>
<path d="M5175 3160 c-3 -5 -1 -10 4 -10 6 0 11 5 11 10 0 6 -2 10 -4 10 -3 0
-8 -4 -11 -10z"/>
<path d="M3565 3150 c-9 -15 4 -30 26 -30 22 0 24 11 7 28 -15 15 -25 15 -33
2z"/>
<path d="M3905 3147 c-4 -10 -5 -21 -1 -24 10 -10 18 4 13 24 -4 17 -4 17 -12
0z"/>
<path d="M3530 3110 c0 -5 5 -10 10 -10 6 0 10 5 10 10 0 6 -4 10 -10 10 -5 0
-10 -4 -10 -10z"/>
<path d="M3720 3104 c0 -8 5 -12 10 -9 6 3 10 10 10 16 0 5 -4 9 -10 9 -5 0
-10 -7 -10 -16z"/>
<path d="M3600 3081 c0 -5 5 -13 10 -16 6 -3 10 -2 10 4 0 5 -4 13 -10 16 -5
3 -10 2 -10 -4z"/>
<path d="M3470 3040 c0 -5 5 -10 11 -10 5 0 7 5 4 10 -3 6 -8 10 -11 10 -2 0
-4 -4 -4 -10z"/>
<path d="M4532 3014 c1 -9 9 -19 16 -22 9 -3 13 2 10 14 -1 9 -9 19 -16 22 -9
3 -13 -2 -10 -14z"/>
<path d="M3507 2951 c6 -25 19 -35 27 -22 3 4 -3 16 -14 26 -18 16 -18 16 -13
-4z"/>
<path d="M4560 2931 c0 -5 -3 -17 -6 -26 -6 -16 -5 -16 26 0 25 13 30 19 19
26 -18 11 -39 11 -39 0z"/>
<path d="M4960 2840 c0 -13 11 -13 30 0 12 8 11 10 -7 10 -13 0 -23 -4 -23
-10z"/>
<path d="M4460 2810 c0 -5 5 -10 11 -10 5 0 7 5 4 10 -3 6 -8 10 -11 10 -2 0
-4 -4 -4 -10z"/>
<path d="M4875 2670 c-17 -19 -17 -20 0 -26 11 -5 22 -1 30 9 7 10 18 17 26
17 11 0 11 2 -1 10 -22 14 -35 12 -55 -10z"/>
<path d="M3600 2175 c0 -8 2 -15 4 -15 2 0 6 7 10 15 3 8 1 15 -4 15 -6 0 -10
-7 -10 -15z"/>
<path d="M4080 2170 c0 -5 5 -10 10 -10 6 0 10 5 10 10 0 6 -4 10 -10 10 -5 0
-10 -4 -10 -10z"/>
<path d="M3670 2145 c0 -8 5 -15 10 -15 6 0 10 7 10 15 0 8 -4 15 -10 15 -5 0
-10 -7 -10 -15z"/>
<path d="M3620 2136 c0 -9 5 -16 10 -16 6 0 10 4 10 9 0 6 -4 13 -10 16 -5 3
-10 -1 -10 -9z"/>
<path d="M3925 2120 c3 -5 8 -10 11 -10 2 0 4 5 4 10 0 6 -5 10 -11 10 -5 0
-7 -4 -4 -10z"/>
<path d="M3695 2110 c3 -5 8 -10 11 -10 2 0 4 5 4 10 0 6 -5 10 -11 10 -5 0
-7 -4 -4 -10z"/>
<path d="M5528 1360 c-34 -26 -27 -50 16 -50 18 0 37 -5 44 -12 9 -9 15 -9 23
-1 18 18 3 46 -20 38 -14 -4 -21 1 -28 20 l-8 26 -27 -21z"/>
<path d="M5156 973 c-3 -3 -3 -10 0 -14 7 -12 34 -11 34 0 0 11 -26 22 -34 14z"/>
<path d="M4080 84 c0 -14 3 -14 15 -4 8 7 15 14 15 16 0 2 -7 4 -15 4 -8 0
-15 -7 -15 -16z"/>
<path d="M3318 2163 c-10 -2 -18 -11 -18 -19 0 -9 7 -14 18 -12 9 1 23 -1 30
-5 8 -6 12 -1 12 17 0 26 -7 28 -42 19z"/>
<path d="M3666 1914 c-4 -11 -1 -14 11 -12 9 2 18 9 21 16 6 18 -25 15 -32 -4z"/>
<path d="M3130 1785 c-10 -12 -10 -15 4 -15 10 0 19 -11 22 -29 4 -18 14 -31
27 -35 15 -4 17 -2 8 7 -6 6 -11 26 -11 43 0 18 -4 36 -10 39 -5 3 -10 0 -10
-7 0 -11 -2 -11 -9 0 -6 10 -10 10 -21 -3z"/>
<path d="M3215 1780 c3 -5 11 -10 16 -10 6 0 7 5 4 10 -3 6 -11 10 -16 10 -6
0 -7 -4 -4 -10z"/>
<path d="M3077 1774 c-4 -4 -4 -18 -1 -30 5 -18 2 -24 -10 -24 -9 0 -16 -4
-16 -10 0 -5 -4 -10 -10 -10 -14 0 -13 33 2 48 18 18 1 14 -22 -5 -22 -19 -26
-48 -9 -58 6 -4 14 -17 19 -29 9 -21 9 -21 9 2 1 21 4 23 32 17 30 -7 31 -6
27 19 -4 21 -2 25 16 23 12 -1 22 5 24 16 2 12 -3 17 -18 17 -16 0 -20 4 -16
15 5 15 -14 21 -27 9z"/>
<path d="M2910 1730 c0 -5 5 -10 10 -10 6 0 10 5 10 10 0 6 -4 10 -10 10 -5 0
-10 -4 -10 -10z"/>
<path d="M2863 1701 c-10 -16 -9 -18 8 -14 10 3 19 12 19 19 0 20 -13 17 -27
-5z"/>
<path d="M2955 1709 c-4 -6 -13 -8 -21 -5 -7 3 -16 1 -19 -4 -4 -6 6 -15 20
-20 14 -5 23 -14 20 -20 -9 -15 11 -12 23 3 12 14 5 57 -9 57 -4 0 -11 -5 -14
-11z"/>
<path d="M3140 1680 c0 -5 5 -10 11 -10 5 0 7 5 4 10 -3 6 -8 10 -11 10 -2 0
-4 -4 -4 -10z"/>
<path d="M3100 1650 c0 -5 5 -10 10 -10 6 0 10 5 10 10 0 6 -4 10 -10 10 -5 0
-10 -4 -10 -10z"/>
<path d="M4335 1649 c-4 -6 -3 -15 3 -21 6 -6 11 -4 15 6 7 18 -9 31 -18 15z"/>
<path d="M2728 1643 c7 -3 16 -2 19 1 4 3 -2 6 -13 5 -11 0 -14 -3 -6 -6z"/>
<path d="M2893 1623 c-13 -2 -23 -9 -23 -14 0 -5 -7 -9 -15 -9 -11 0 -15 -11
-15 -37 0 -35 -1 -36 -19 -19 -18 17 -20 17 -29 -1 -5 -10 -7 -24 -4 -32 3 -9
-1 -11 -17 -6 -16 5 -20 3 -15 -8 3 -8 1 -18 -5 -22 -17 -10 -13 -28 4 -21 24
9 18 -28 -7 -39 -12 -6 -23 -16 -26 -22 -5 -18 25 -16 32 2 4 10 14 13 34 9
26 -5 32 -2 46 27 19 37 20 42 6 34 -5 -3 -10 3 -10 13 0 15 5 19 20 15 13 -4
22 1 26 13 3 11 11 29 16 41 6 12 8 31 5 42 -3 14 0 21 8 21 8 0 17 5 20 10 3
6 3 9 -2 9 -4 -1 -18 -4 -30 -6z m-76 -159 c-3 -3 -12 -4 -19 -1 -8 3 -5 6 6
6 11 1 17 -2 13 -5z"/>
<path d="M4680 1530 c0 -5 6 -10 14 -10 8 0 18 5 21 10 3 6 -3 10 -14 10 -12
0 -21 -4 -21 -10z"/>
<path d="M2753 1346 c-4 -7 -15 -15 -23 -18 -8 -3 -10 -7 -4 -11 12 -7 54 19
54 34 0 14 -18 11 -27 -5z"/>
<path d="M4680 1350 c0 -5 5 -10 11 -10 5 0 7 5 4 10 -3 6 -8 10 -11 10 -2 0
-4 -4 -4 -10z"/>
<path d="M2655 1330 c-8 -12 33 -53 45 -45 16 10 11 23 -10 30 -11 4 -18 11
-15 16 4 5 2 9 -4 9 -5 0 -12 -4 -16 -10z"/>
<path d="M3049 1277 c-11 -14 -19 -51 -22 -100 -5 -76 -25 -155 -54 -210 -8
-16 -12 -31 -9 -34 8 -9 45 39 46 60 0 15 3 16 20 7 11 -6 20 -17 20 -25 0 -8
-9 -19 -20 -25 -11 -6 -20 -18 -20 -27 0 -9 -9 -25 -21 -37 -11 -12 -33 -41
-49 -65 -23 -37 -26 -48 -17 -68 8 -18 7 -27 -6 -41 -10 -11 -13 -22 -7 -32 6
-10 1 -19 -21 -32 -16 -10 -36 -18 -44 -18 -8 0 -19 -10 -26 -21 -9 -17 -13
-19 -20 -8 -14 24 -23 0 -9 -26 10 -19 11 -28 2 -37 -9 -9 -14 -5 -21 13 -8
22 -10 22 -16 5 -5 -11 -3 -21 6 -27 14 -9 12 -10 -13 -13 -7 0 -14 -11 -16
-23 -4 -29 -20 -30 -30 -3 -8 20 -8 20 -32 -5 -13 -14 -32 -25 -42 -25 -11 0
-16 -5 -13 -10 3 -6 17 -7 31 -4 17 5 24 2 24 -9 0 -10 -13 -18 -37 -22 -53
-9 -92 -45 -86 -79 5 -23 2 -26 -21 -26 -16 0 -26 -5 -26 -15 0 -8 5 -15 10
-15 6 0 10 -4 10 -10 0 -16 -32 -11 -46 8 -11 15 -13 15 -14 1 0 -18 -41 -59
-58 -59 -7 0 -12 -5 -12 -11 0 -7 11 -8 30 -4 23 5 30 3 30 -8 0 -9 -14 -17
-35 -21 -19 -4 -48 -20 -65 -37 -34 -35 -36 -39 -15 -39 8 0 15 -4 15 -10 0
-12 30 -13 49 -1 12 8 13 12 1 25 -16 21 -16 21 45 39 43 12 50 18 53 41 3 19
8 26 18 22 9 -4 18 3 24 19 5 14 14 25 20 25 5 0 10 9 10 21 0 14 5 19 15 16
14 -6 72 56 123 130 12 17 38 41 57 53 19 12 35 27 35 33 0 12 33 44 106 100
40 32 77 51 167 83 26 9 47 21 47 25 0 5 11 9 24 9 14 0 28 5 31 10 3 6 18 10
32 10 14 0 46 14 71 31 25 17 66 38 91 48 30 11 47 23 50 36 2 11 0 17 -4 13
-7 -7 -79 47 -125 93 -9 8 -26 22 -37 30 -22 15 -123 199 -123 225 0 19 -40
74 -54 74 -6 0 -18 -11 -27 -23z m11 -223 c0 -16 -26 -19 -35 -4 -3 6 -4 14 0
20 8 13 35 1 35 -16z m124 9 c8 -19 -8 -38 -23 -29 -16 10 -13 46 3 46 8 0 17
-8 20 -17z m-14 -73 c9 -16 8 -18 -5 -14 -8 4 -15 12 -15 20 0 20 7 17 20 -6z
m110 -119 c0 -12 -20 -25 -27 -18 -7 7 6 27 18 27 5 0 9 -4 9 -9z m80 -1 c0
-5 -4 -10 -10 -10 -5 0 -10 5 -10 10 0 6 5 10 10 10 6 0 10 -4 10 -10z m-110
-56 c0 -14 -4 -23 -10 -19 -5 3 -10 15 -10 26 0 10 5 19 10 19 6 0 10 -12 10
-26z m-642 -461 c-4 -22 -48 -31 -48 -10 0 19 10 27 32 27 13 0 18 -6 16 -17z
m-128 -113 c0 -5 -4 -10 -10 -10 -5 0 -10 5 -10 10 0 6 5 10 10 10 6 0 10 -4
10 -10z"/>
<path d="M2537 1260 c-14 -14 -15 -19 -5 -23 9 -4 8 -6 -4 -6 -21 -1 -84 -58
-75 -67 4 -4 19 -9 33 -10 55 -6 58 -11 30 -48 -29 -38 -31 -46 -15 -46 14 0
62 48 78 78 6 12 18 22 26 22 8 0 15 4 15 9 0 6 14 25 30 43 36 39 36 40 10
56 -18 11 -20 10 -20 -13 0 -16 -6 -25 -15 -25 -8 0 -15 5 -15 11 0 13 -30 39
-45 38 -5 0 -18 -8 -28 -19z m63 -46 c0 -17 -22 -14 -28 4 -2 7 3 12 12 12 9
0 16 -7 16 -16z m-45 -23 c3 -5 1 -12 -4 -15 -12 -8 -41 3 -41 15 0 12 37 12
45 0z"/>
<path d="M2458 1120 c-22 -24 -8 -33 27 -20 23 9 25 13 15 25 -16 19 -21 18
-42 -5z"/>
<path d="M2586 1116 c7 -19 -13 -56 -30 -56 -18 0 -28 -27 -15 -36 15 -9 65
45 73 79 5 22 3 27 -13 27 -14 0 -19 -5 -15 -14z"/>
<path d="M2870 730 c0 -5 5 -10 10 -10 6 0 10 5 10 10 0 6 -4 10 -10 10 -5 0
-10 -4 -10 -10z"/>
<path d="M2861 681 c-11 -10 -21 -21 -21 -25 0 -12 21 -6 41 13 27 25 8 36
-20 12z"/>
<path d="M2800 640 c0 -5 5 -10 10 -10 6 0 10 5 10 10 0 6 -4 10 -10 10 -5 0
-10 -4 -10 -10z"/>
<path d="M4085 600 c5 -16 2 -20 -14 -20 -12 0 -21 -7 -21 -15 0 -20 13 -19
33 3 19 21 23 52 6 52 -6 0 -8 -9 -4 -20z"/>
<path d="M3855 580 c-3 -5 -1 -10 4 -10 6 0 11 5 11 10 0 6 -2 10 -4 10 -3 0
-8 -4 -11 -10z"/>
<path d="M4700 500 c0 -5 5 -10 10 -10 6 0 10 5 10 10 0 6 -4 10 -10 10 -5 0
-10 -4 -10 -10z"/>
<path d="M4595 440 c-3 -5 3 -10 15 -10 12 0 18 5 15 10 -3 6 -10 10 -15 10
-5 0 -12 -4 -15 -10z"/>
<path d="M4697 443 c-26 -4 -26 -6 -12 -26 16 -23 20 -65 7 -82 -4 -5 -15 -16
-25 -24 -15 -12 -19 -12 -31 5 -8 10 -18 15 -23 11 -4 -5 0 -14 9 -21 12 -9
15 -20 11 -37 -6 -22 -5 -23 11 -9 23 18 56 38 79 46 18 7 23 39 7 49 -5 3
-10 17 -10 30 0 13 5 27 10 30 12 7 14 36 3 34 -5 -1 -20 -4 -36 -6z"/>
<path d="M4635 390 c-3 -5 -1 -10 4 -10 6 0 11 5 11 10 0 6 -2 10 -4 10 -3 0
-8 -4 -11 -10z"/>
<path d="M4590 360 c0 -5 7 -10 15 -10 8 0 15 5 15 10 0 6 -7 10 -15 10 -8 0
-15 -4 -15 -10z"/>
<path d="M4520 321 c0 -9 24 -21 41 -21 5 0 9 7 9 15 0 9 -9 15 -25 15 -14 0
-25 -4 -25 -9z"/>
<path d="M4445 270 c-3 -5 -1 -10 4 -10 6 0 11 5 11 10 0 6 -2 10 -4 10 -3 0
-8 -4 -11 -10z"/>
<path d="M4590 245 c0 -9 5 -15 11 -13 6 2 11 8 11 13 0 5 -5 11 -11 13 -6 2
-11 -4 -11 -13z"/>
<path d="M4525 230 c-8 -14 3 -30 21 -30 8 0 14 9 14 20 0 21 -24 28 -35 10z"/>
<path d="M4463 163 c-17 -6 -16 -30 1 -36 18 -7 26 1 26 25 0 18 -5 20 -27 11z"/>
<path d="M4424 109 c-3 -6 -1 -16 5 -22 8 -8 11 -5 11 11 0 24 -5 28 -16 11z"/>
<path d="M2300 65 c0 -9 9 -15 25 -15 16 0 25 6 25 15 0 9 -9 15 -25 15 -16 0
-25 -6 -25 -15z"/>
<path d="M4257 33 c-17 -16 -5 -33 23 -33 32 0 37 9 18 28 -13 13 -31 16 -41
5z"/>
<path d="M2265 10 c-3 -5 3 -10 14 -10 12 0 21 5 21 10 0 6 -6 10 -14 10 -8 0
-18 -4 -21 -10z"/>
</g>
</svg>
